<?xml version="1.0" standalone="no"?>
<!DOCTYPE svg PUBLIC "-//W3C//DTD SVG 1.1//EN" "http://www.w3.org/Graphics/SVG/1.1/DTD/svg11.dtd" >
<svg xmlns="http://www.w3.org/2000/svg">
<metadata></metadata>
<defs>
<font id="judsonitalic" horiz-adv-x="1003" >
<font-face units-per-em="2048" ascent="1638" descent="-410" />
<missing-glyph horiz-adv-x="491" />
<glyph horiz-adv-x="0" />
<glyph unicode="&#xd;" horiz-adv-x="681" />
<glyph unicode=" "  horiz-adv-x="491" />
<glyph unicode="&#x09;" horiz-adv-x="491" />
<glyph unicode="&#xa0;" horiz-adv-x="491" />
<glyph unicode="!" horiz-adv-x="485" d="M51 86q0 57 43 102t101 45q43 0 74.5 -30.5t31.5 -73.5q0 -55 -45 -102t-102 -47q-41 0 -72 30.5t-31 75.5zM195 473q0 66 21.5 344.5t39.5 380.5q14 92 115 92q39 0 63.5 -19.5t24.5 -53.5q0 -12 -2 -19q-12 -74 -83 -356.5t-83 -321.5q-43 -139 -72 -139q-25 0 -24 92z " />
<glyph unicode="&#x22;" horiz-adv-x="684" d="M188 1026q0 162 13 244q14 92 106 92q80 0 80 -70q0 -23 -10 -64.5t-21.5 -77.5t-25 -76t-15.5 -46q-63 -192 -96 -192q-31 0 -31 190zM516 1026q0 162 12 244q14 92 107 92q80 0 80 -70q0 -23 -10.5 -64.5t-21.5 -77.5t-24.5 -76t-15.5 -46q-63 -192 -96 -192 q-31 0 -31 190z" />
<glyph unicode="#" horiz-adv-x="997" d="M49 401l10 70h205l82 258h-211l10 70h222l122 399h72l-123 -399h256l123 399h72l-123 -399h209l-10 -70h-220l-81 -258h225l-10 -70h-236l-123 -401h-71l122 401h-256l-122 -401h-72l123 401h-195zM336 471h256l82 258h-256z" />
<glyph unicode="$" horiz-adv-x="933" d="M31 94l30 191h45q2 -113 70 -169.5t176 -64.5l80 473q-70 45 -96.5 64.5t-77.5 65.5t-72.5 94.5t-21.5 105.5q0 141 119.5 250.5t265.5 114.5l8 51h61l-10 -53q68 -8 130.5 -36t90.5 -51l29 -24l-27 -168h-45q0 186 -188 209l-72 -424q68 -43 91.5 -57.5t78 -57.5 t77 -73.5t44 -79.5t21.5 -101q0 -176 -135.5 -274t-301.5 -100l-8 -54h-61l8 56q-86 8 -163 35.5t-111 52.5zM330 942q0 -90 141 -182l66 389q-92 -4 -149.5 -69.5t-57.5 -137.5zM414 49q104 4 173.5 62.5t69.5 167.5q0 66 -43 111.5t-127 98.5z" />
<glyph unicode="%" horiz-adv-x="1110" d="M88 41l879 1116h82l-879 -1116h-82zM129 909q0 121 84 208t180 87q76 0 129 -58.5t53 -146.5q0 -121 -83.5 -207.5t-180.5 -86.5q-76 0 -129 58t-53 146zM254 907q0 -55 19.5 -94t48.5 -39q43 0 86 75t43 152q0 55 -19.5 94.5t-48.5 39.5q-43 0 -86 -74t-43 -154z M559 199q0 121 84 208t180 87q76 0 129.5 -58.5t53.5 -146.5q0 -121 -85 -208t-182 -87q-76 0 -128 58.5t-52 146.5zM684 197q0 -55 19.5 -94.5t48.5 -39.5q43 0 86 74t43 154q0 55 -19.5 94t-48.5 39q-43 0 -86 -74t-43 -153z" />
<glyph unicode="&#x26;" horiz-adv-x="1239" d="M-2 205q0 78 31.5 141.5t90 113.5t118 86t139.5 79q18 10 29 14q-23 115 -23 229q0 98 26.5 170t70.5 109t90 54.5t96 17.5q90 0 139 -55.5t49 -137.5q0 -117 -72.5 -202t-197.5 -169q57 -244 164 -417q96 121 225 393q-14 33 -121 33l8 43h336l-8 -43q-117 0 -135 -39 q-147 -305 -271 -441q70 -94 129 -94q78 0 111 14.5t74 61.5l20 -21q-90 -166 -239 -165q-117 0 -215 94q-135 -94 -287 -94q-377 0 -377 225zM211 250q0 -184 254 -184q80 0 158 51q-129 154 -197 434q-113 -76 -164 -137.5t-51 -163.5zM551 891q0 -66 16 -160 q100 66 149.5 129.5t49.5 163.5q0 123 -71.5 123t-107.5 -71.5t-36 -184.5z" />
<glyph unicode="'" horiz-adv-x="356" d="M188 1026q0 162 13 244q14 92 106 92q80 0 80 -70q0 -23 -10 -64.5t-21.5 -77.5t-25 -76t-15.5 -46q-63 -192 -96 -192q-31 0 -31 190z" />
<glyph unicode="(" horiz-adv-x="507" d="M94 485q1 64 15 160q63 381 399 725q23 23 37 23t14 -19q0 -6 -8 -22q-2 -2 -28.5 -45t-32 -54.5t-31 -54.5t-34.5 -67.5t-30.5 -71.5t-34 -86t-29 -93.5t-28.5 -112.5t-22 -122q-29 -170 -29 -307q0 -55 3 -102.5t13.5 -97.5t13.5 -69.5t17 -74.5l16 -55q4 -16 -2 -28.5 t-18 -12.5q-16 0 -31 22q-170 270 -170 565z" />
<glyph unicode=")" horiz-adv-x="505" d="M-12 -84q0 6 8 23l31 51t38 62t35.5 63.5t39 80t34 86t36.5 107.5t29.5 116.5t28.5 139.5q27 158 27 307q0 55 -3 102.5t-13.5 97.5t-13.5 69.5t-19 74.5l-15 56q-4 16 3.5 28.5t19.5 12.5q14 0 29 -23q170 -270 170 -565q-1 -76 -13 -160q-63 -379 -401 -725 q-23 -23 -35 -22q-16 0 -16 18z" />
<glyph unicode="*" horiz-adv-x="737" d="M168 1020q0 45 32.5 83t67.5 38q4 0 21 -4q18 -6 58 -56.5t44 -72.5q16 27 51 30q-14 12 -36.5 71.5t-22.5 84.5q0 35 30.5 55.5t71.5 20.5q78 0 78 -60q0 -25 -45 -91t-67 -81q33 -4 38 -32q8 18 68.5 71t81.5 60q16 4 23 4q27 0 45 -24.5t18 -59.5q0 -39 -20.5 -66.5 t-55.5 -27.5t-91 12t-69 22q6 -20 -24 -51q23 0 84 -31.5t69 -48.5q6 -14 7 -28q0 -39 -43 -72t-82 -33q-33 0 -43.5 20.5t-10.5 67.5q0 59 7 97q4 16 6 22q-14 -8 -31 -8q-12 0 -25 6q0 -14 -2 -25q-6 -39 -23.5 -90t-29.5 -63q-27 -27 -57 -27q-35 0 -62.5 25.5 t-27.5 58.5q0 25 20 49q14 16 83 47t91 33q-14 16 -8 51q-18 -10 -75.5 -22t-90.5 -12q-53 0 -53 57z" />
<glyph unicode="+" horiz-adv-x="827" d="M92 606l14 90h289l47 289h90l-47 -289h289l-14 -90h-289l-49 -289h-90l49 289h-289z" />
<glyph unicode="," horiz-adv-x="468" d="M8 -264l10 57q53 6 115 56.5t74 113.5q6 39 4 45t-16 6q-6 0 -25.5 -13t-42.5 -13q-41 0 -65.5 21.5t-24.5 58.5q0 63 48 100t91 37q61 0 97 -49.5t36 -120.5q0 -207 -301 -299z" />
<glyph unicode="-" horiz-adv-x="802" d="M143 606l15 90h540l-14 -90h-541z" />
<glyph unicode="." horiz-adv-x="452" d="M41 86q0 57 43 102t100 45q43 0 75 -30.5t32 -73.5q0 -55 -45 -102t-103 -47q-41 0 -71.5 30.5t-30.5 75.5z" />
<glyph unicode="/" horiz-adv-x="952" d="M-43 -20l1010 1273l53 -36l-1010 -1274z" />
<glyph unicode="0" d="M156 434q0 86 14 164q43 260 189.5 440.5t347.5 180.5q166 0 254 -127t88 -330q0 -84 -15 -164q-43 -260 -189.5 -439t-346.5 -179q-166 0 -254 125.5t-88 328.5zM338 406q0 -158 45 -260.5t127 -102.5q90 0 174 118t133 292t49 338q0 160 -45 262t-127 102 q-88 0 -172 -118.5t-134 -293t-50 -337.5z" />
<glyph unicode="1" d="M219 0l8 43q88 0 173 19.5t92 62.5l131 784q-104 -57 -242 -149l-8 35l432 403h55l-180 -1073v-6q0 -39 78 -57.5t162 -18.5l-9 -43h-692z" />
<glyph unicode="2" d="M82 0q4 25 81 92.5t183.5 156.5t212 192.5t179 226.5t73.5 231q0 82 -40 139.5t-124 57.5q-102 0 -180 -31t-110.5 -67.5t-56.5 -67.5t-32 -31q-14 0 -12 21q2 16 19.5 48.5t54.5 77t85 82t120.5 64.5t154.5 27q168 0 248 -77t80 -200q0 -106 -102.5 -241.5t-225.5 -240 t-228.5 -196.5t-109.5 -121h432q31 12 73 46t69 83h41l-123 -272h-762z" />
<glyph unicode="3" d="M123 145q0 113 92 113q25 0 37 -34t22.5 -74.5t61.5 -74.5t141 -34q88 0 151.5 28.5t98.5 79t50.5 105.5t15.5 119q0 92 -36 162.5t-120 70.5q-25 0 -53.5 -5t-48.5 -5q-14 0 -24.5 7t-9.5 17.5t15 16.5q51 14 98.5 36.5t99.5 58.5t83.5 92.5t31.5 123.5q0 70 -49 109 t-141 39q-84 0 -148.5 -24.5t-91 -55.5t-46 -55.5t-27.5 -24.5q-14 0 -13 20q10 63 113.5 163t255.5 100q174 0 253 -54.5t79 -160.5q0 -195 -250 -326q86 -20 144.5 -104.5t58.5 -180.5q0 -184 -120 -298.5t-368 -114.5q-106 0 -192 33.5t-125 70.5t-39 61z" />
<glyph unicode="4" d="M139 360l705 838h106l-131 -776h166l-10 -62h-166l-45 -276q12 -41 123 -41l-8 -43h-443l8 43q113 0 136 41l45 276h-486zM262 422h373l92 551z" />
<glyph unicode="5" d="M123 143q0 115 92 115q20 0 29.5 -22.5t18.5 -54t28.5 -63.5t73 -54.5t137.5 -22.5q98 0 169.5 67.5t100.5 152.5t29 169q0 283 -473 283l149 485h572l-74 -143h-471l-80 -262q297 0 425 -92.5t128 -235.5q0 -199 -121 -342t-352 -143q-123 0 -216 33.5t-129 69.5t-36 60 z" />
<glyph unicode="6" d="M174 340q0 156 53.5 299t135 244.5t180 181.5t189.5 121t161 49l18 -37q-158 -39 -281.5 -163.5t-195.5 -325.5q92 49 199 49q184 0 261 -67.5t77 -194.5q0 -233 -128 -374.5t-333 -141.5q-166 0 -251 97t-85 263zM354 301q0 -131 47.5 -193.5t120.5 -62.5q98 0 180 134 t82 308q1 201 -159 201q-135 0 -213 -47q-57 -184 -58 -340z" />
<glyph unicode="7" d="M274 926l123 272h688q-4 -31 -133 -253t-266 -495.5t-164 -426.5q-8 -43 -84 -43q-63 0 -63 36q0 104 129 341t262 449t139 249h-448q-31 -12 -73 -46t-69 -83h-41z" />
<glyph unicode="8" d="M154 219q0 137 93 236.5t218 160.5q-172 154 -172 293q0 135 116.5 222.5t299.5 87.5q325 -1 325 -228q0 -231 -305 -375q98 -86 152.5 -159.5t54.5 -161.5q0 -139 -126 -227t-312 -88q-166 0 -255 64.5t-89 174.5zM289 219q0 -76 54 -125t128 -49q119 0 203 66.5 t84 173.5q0 20 -6.5 39.5t-22.5 42t-27.5 38t-40 42t-41 38t-51.5 43t-49 39.5q-84 -47 -157.5 -135t-73.5 -213zM473 920q0 -41 33 -88.5t66.5 -79t101.5 -88.5q88 43 156.5 124.5t68.5 206.5q0 76 -46 117t-118 41q-117 0 -189.5 -61.5t-72.5 -171.5z" />
<glyph unicode="9" d="M233 702q0 233 128 375t333 142q166 0 251 -97.5t85 -263.5q0 -156 -53 -299t-135 -244.5t-180.5 -181.5t-189.5 -121t-161 -49l-18 37q158 39 281.5 163.5t195.5 325.5q-92 -49 -199 -49q-184 0 -261 67.5t-77 194.5zM418 711q0 -201 162 -201q135 0 213 47 q57 184 57 340q0 131 -47 193.5t-121 62.5q-98 0 -181 -135t-83 -307z" />
<glyph unicode=":" horiz-adv-x="509" d="M61 86q0 57 43 102t101 45q43 0 74.5 -30.5t31.5 -73.5q0 -55 -45 -102t-102 -47q-41 0 -72 30.5t-31 75.5zM176 762q0 57 43 102t100 45q43 0 75 -30.5t32 -73.5q0 -55 -45 -102.5t-102 -47.5q-41 0 -72 31t-31 76z" />
<glyph unicode=";" horiz-adv-x="534" d="M35 -264l10 57q53 6 114.5 56.5t73.5 113.5q4 25 4.5 36t-3 13t-13.5 2q-6 0 -25.5 -13t-41.5 -13q-41 0 -66 21.5t-25 58.5q0 63 48.5 100t91.5 37q61 0 97 -49.5t36 -120.5q0 -207 -301 -299zM182 762q0 57 43 102t101 45q43 0 74.5 -30.5t31.5 -73.5q0 -55 -45 -102.5 t-102 -47.5q-41 0 -72 31t-31 76z" />
<glyph unicode="&#x3c;" horiz-adv-x="954" d="M76 606l14 90l813 353l-14 -82l-729 -316l622 -315l-12 -82z" />
<glyph unicode="=" d="M129 483l16 90h725l-16 -90h-725zM172 729l14 90h725l-14 -90h-725z" />
<glyph unicode="&#x3e;" horiz-adv-x="954" d="M94 254l12 82l730 315l-623 316l14 82l695 -353l-15 -90z" />
<glyph unicode="?" horiz-adv-x="808" d="M137 989q0 115 104.5 208t266.5 93q166 0 238.5 -75.5t72.5 -184.5q0 -98 -65.5 -193.5t-145.5 -158t-152.5 -137t-82.5 -131.5q-2 -10 -12.5 -19.5t-18.5 -9.5t-16.5 9t-6.5 20q12 70 49.5 135t82.5 117.5t88 109.5t71.5 134t28.5 167q0 82 -39 119t-123 37 t-144.5 -51.5t-60.5 -110.5q0 -16 8.5 -37t8.5 -35q0 -37 -24.5 -60.5t-57.5 -23.5q-29 0 -49.5 19.5t-20.5 58.5zM176 86q0 57 43 102t100 45q43 0 75 -30.5t32 -73.5q0 -55 -45 -102t-102 -47q-41 0 -72 30.5t-31 75.5z" />
<glyph unicode="@" horiz-adv-x="1286" d="M96 479q0 166 66.5 310.5t172 235.5t229.5 142.5t243 51.5q172 0 281.5 -100.5t109.5 -291.5q0 -115 -45 -231.5t-147.5 -206.5t-237.5 -90q-33 0 -59.5 19.5t-26.5 62.5q0 25 10 55q-111 -110 -211 -110q-66 0 -99.5 43t-33.5 112q0 152 121 283t233 131q59 0 93 -36 t39 -95l47 108h108l-196 -456q-6 -10 -7 -17q0 -27 43 -26q94 0 162 88t94.5 187.5t26.5 182.5q0 92 -26.5 155t-73.5 93.5t-97.5 42t-113.5 11.5q-102 0 -209 -42t-199 -120t-150.5 -202t-58.5 -271q0 -199 137.5 -319t299.5 -120q92 0 178 29t137 59.5t108.5 89t69.5 75 t45 61.5l31 -17q-104 -172 -244.5 -274t-351.5 -102q-199 0 -348.5 139t-149.5 360zM444 514q0 -100 84 -100t170 100t86 217q0 102 -84 103q-82 0 -169 -101.5t-87 -218.5z" />
<glyph unicode="A" horiz-adv-x="1112" d="M-98 0l8 43q115 0 135 43l584 1112h98l211 -1112q8 -43 125 -43l-8 -43h-449l8 43q94 0 123 25l-63 313h-393l-156 -301q14 -37 121 -37l-8 -43h-336zM317 449h345l-95 477z" />
<glyph unicode="B" horiz-adv-x="1150" d="M4 0l8 43q113 0 135 41l172 1030q-12 41 -122 41l8 43h377q238 0 354.5 -72.5t116.5 -179.5q0 -113 -72 -193.5t-195 -119.5q133 -33 198 -100.5t65 -149.5q0 -170 -150.5 -276.5t-402.5 -106.5h-492zM334 70h174q164 0 250 88t86 233q0 86 -62.5 144.5t-210.5 58.5h-149 zM430 653h84q160 0 247 80t87 221q0 174 -279 174h-59z" />
<glyph unicode="C" horiz-adv-x="1155" d="M92 469q0 168 67.5 313.5t174 238.5t236.5 145.5t259 52.5q59 0 133 -31t85 -31q25 0 30 41h47l-22 -260h-45q0 92 -57.5 151.5t-180.5 59.5q-207 0 -358.5 -196.5t-151.5 -479.5q0 -203 95.5 -313.5t238.5 -110.5q102 0 214 70.5t155 150.5l45 -24q-156 -266 -467 -266 q-240 0 -369 139t-129 350z" />
<glyph unicode="D" horiz-adv-x="1261" d="M4 0l8 43q113 0 135 41l172 1030q-12 41 -122 41l8 43h471q240 0 377 -130t137 -347q0 -315 -204 -518t-486 -203h-496zM334 70h178q74 0 155 45t153.5 127t119.5 215t47 288q0 195 -94 294.5t-227 99.5h-154z" />
<glyph unicode="E" horiz-adv-x="1040" d="M4 0l8 43q113 0 135 41l172 1030q-12 41 -122 41l8 43h825l-33 -199h-43q6 43 7 70q0 47 -27 59h-424l-78 -471h287q43 16 61 129h43l-55 -327h-43q8 57 8 69q0 47 -26 60h-287l-86 -518h467q53 20 112 129h41l-82 -199h-868z" />
<glyph unicode="F" horiz-adv-x="976" d="M4 0l8 43q113 0 135 41l172 1030q-12 41 -122 41l8 43h825l-33 -199h-43q6 43 7 70q0 47 -27 59h-424l-78 -471h287q43 16 61 129h43l-55 -327h-43q8 57 8 69q0 47 -26 60h-287l-84 -504q12 -41 123 -41l-8 -43h-447z" />
<glyph unicode="G" horiz-adv-x="1271" d="M90 477q0 166 70.5 309.5t182.5 235.5t244 144.5t261 52.5q61 0 143 -31t94 -31q25 0 31 41h47l-22 -260h-45q0 84 -67.5 147.5t-190.5 63.5q-207 0 -372 -213t-165 -496q0 -199 96.5 -295t227.5 -96q113 0 223 39l72 420q-12 41 -123 41l6 43h446l-6 -43 q-113 0 -135 -41l-59 -344q-45 -66 -161 -125t-280 -59q-244 0 -381 143t-137 354z" />
<glyph unicode="H" horiz-adv-x="1343" d="M4 0l8 43q113 0 135 41l172 1030q-12 41 -122 41l8 43h446l-8 -43q-113 0 -135 -41l-76 -457h524l76 457q-12 41 -123 41l9 43h446l-8 -43q-113 0 -135 -41l-172 -1030q12 -41 122 -41l-8 -43h-446l8 43q113 0 135 41l84 504h-524l-84 -504q12 -41 123 -41l-8 -43h-447z " />
<glyph unicode="I" horiz-adv-x="630" d="M4 0l8 43q113 0 135 41l172 1030q-12 41 -122 41l8 43h446l-8 -43q-113 0 -135 -41l-172 -1030q12 -41 123 -41l-8 -43h-447z" />
<glyph unicode="J" horiz-adv-x="851" d="M-43 147q0 51 31.5 85t74.5 34q80 0 80 -59q0 -76 -65 -98q47 -55 147 -56q59 0 99.5 23.5t66 78t39.5 112t31 159.5l114 688q-12 41 -122 41l8 43h446l-8 -43q-113 0 -135 -41l-127 -762q-25 -156 -122 -264t-282 -108q-135 0 -205.5 51t-70.5 116z" />
<glyph unicode="K" horiz-adv-x="1185" d="M4 0l8 43q113 0 135 41l172 1030q-12 41 -122 41l8 43h442l-8 -43q-113 0 -135 -41l-172 -1030q12 -41 123 -41l-9 -43h-442zM436 643l584 498q-27 14 -102 14l8 43h321l-8 -43q-80 0 -133 -47l-481 -408l376 -624q27 -33 125 -33l-8 -43h-399l8 43q47 0 76 6z" />
<glyph unicode="L" horiz-adv-x="1013" d="M4 0l8 43q113 0 135 41l172 1030q-12 41 -122 41l8 43h446l-8 -43q-113 0 -135 -41l-174 -1044h467q53 20 112 129h41l-82 -199h-868z" />
<glyph unicode="M" horiz-adv-x="1658" d="M4 0l8 43q113 0 135 41l172 1030q-12 41 -122 41l8 43h299l276 -952l596 952h303l-8 -43q-113 0 -135 -41l-172 -1030q12 -41 123 -41l-8 -43h-447l8 43q113 0 136 41l153 920l-627 -1004h-30l-299 1016l-156 -932q12 -41 123 -41l-8 -43h-328z" />
<glyph unicode="N" horiz-adv-x="1316" d="M4 0l8 43q113 0 135 41l172 1030q-12 41 -122 41l8 43h274l537 -838l127 754q-12 41 -123 41l8 43h328l-8 -43q-113 0 -136 -41l-186 -1114h-18l-635 1018l-156 -934q12 -41 123 -41l-8 -43h-328z" />
<glyph unicode="O" horiz-adv-x="1318" d="M94 479q0 303 204 521.5t478 218.5q217 0 345 -142.5t128 -359.5q0 -301 -204.5 -519t-477.5 -218q-219 0 -346 141t-127 358zM299 469q0 -178 71.5 -299t217.5 -121q137 0 244.5 106.5t158.5 258t51 309.5q0 115 -27.5 207t-94 155.5t-164.5 63.5q-137 0 -245 -107.5 t-160 -260t-52 -312.5z" />
<glyph unicode="P" horiz-adv-x="1114" d="M4 0l8 43q113 0 135 41l172 1030q-12 41 -122 41l8 43h463q233 0 350 -83t117 -195q0 -168 -149.5 -271.5t-401.5 -103.5h-170l-78 -461q12 -41 123 -41l-8 -43h-447zM424 614h170q338 0 338 324q0 190 -277 190h-145z" />
<glyph unicode="Q" horiz-adv-x="1318" d="M94 479q0 303 204 521.5t478 218.5q217 0 345 -142.5t128 -359.5q0 -203 -94 -368t-246 -265q6 -16 19.5 -53t19.5 -53.5t19.5 -43t26 -38t31.5 -21.5t42 -10q49 0 94 23.5t66 45.5l20 25l27 -22q-10 -16 -27.5 -41t-75 -65t-116.5 -40q-135 0 -202 59.5t-103 157.5 q-89 -28 -177 -28h-6q-219 0 -346 141t-127 358zM299 469q0 -195 80 -309q115 139 264 139q141 0 215 -113q184 213 184 537q0 115 -27.5 207t-94 155.5t-164.5 63.5q-137 0 -245 -107.5t-160 -260t-52 -312.5zM408 125q70 -76 180 -76q76 0 139 31q-20 63 -44 96t-67 33 q-114 0 -208 -84z" />
<glyph unicode="R" horiz-adv-x="1193" d="M4 0l8 43q113 0 135 41l172 1030q-12 41 -122 41l8 43h463q236 0 351.5 -80t115.5 -190q0 -125 -88.5 -219.5t-235.5 -135.5l190 -487q14 -43 129 -43l-8 -43h-88q-143 0 -183 16.5t-71 89.5l-174 439h-192l-78 -461q12 -41 123 -41l-8 -43h-447zM424 614h170 q174 0 256 81t82 255q0 86 -62.5 132t-214.5 46h-145z" />
<glyph unicode="S" horiz-adv-x="980" d="M20 0l48 285h45q2 -123 92 -179.5t217 -56.5q117 0 200 56.5t83 168.5q0 39 -17.5 72t-51.5 61.5t-65.5 49t-81 49.5t-75.5 47q-63 43 -88 62.5t-71 62.5t-65.5 87t-19.5 95q0 139 134 249t282 110q61 0 143 -31t94 -31q25 0 31 41h47l-22 -260h-45q0 90 -67 150.5 t-192 60.5q-100 0 -169.5 -66.5t-69.5 -138.5q0 -35 16.5 -64.5t50 -57t64.5 -47t80 -48.5t76 -47q59 -41 78.5 -54.5t66.5 -52t64.5 -65.5t35 -69t17.5 -87q0 -119 -77 -208t-179.5 -126.5t-206.5 -37.5q-100 0 -199.5 30.5t-103.5 30.5q-12 0 -30.5 -12.5t-20.5 -28.5h-48 z" />
<glyph unicode="T" horiz-adv-x="1095" d="M111 999l32 199h1028l-32 -199h-43q6 43 6 70q0 47 -27 59h-336l-174 -1044q12 -41 123 -41l-8 -43h-447l9 43q113 0 135 41l174 1044h-336q-43 -16 -61 -129h-43z" />
<glyph unicode="U" horiz-adv-x="1267" d="M154 1155l8 43h446l-8 -43q-113 0 -135 -41l-107 -635q-10 -72 -10 -119q0 -150 70.5 -230.5t191.5 -80.5q137 0 250 115t144 303l108 647q-12 41 -123 41l8 43h328l-8 -43q-113 0 -135 -41l-101 -606q-45 -266 -184 -397t-319 -131q-416 0 -416 380q0 53 14 148l100 606 q-12 41 -122 41z" />
<glyph unicode="V" horiz-adv-x="1112" d="M78 1155l8 43h449l-9 -43q-96 0 -123 -25l170 -858l443 846q-14 37 -121 37l8 43h336l-8 -43q-111 0 -129 -33l-590 -1122h-98l-211 1112q-10 43 -125 43z" />
<glyph unicode="W" horiz-adv-x="1720" d="M78 1155l8 43h449l-9 -43q-96 0 -123 -25l170 -856l291 555l-53 283q-8 43 -125 43l8 43h449l-8 -43q-94 0 -123 -25l170 -858l442 846q-14 37 -121 37l8 43h336l-8 -43q-115 0 -135 -43l-584 -1112h-98l-137 715l-373 -715h-98l-211 1112q-10 43 -125 43z" />
<glyph unicode="X" horiz-adv-x="1064" d="M-70 0l9 43q102 0 137 45l387 479l-219 547q-18 41 -125 41l8 43h448l-8 -43q-96 0 -123 -25l158 -391l309 383q-14 33 -120 33l8 43h336l-9 -43q-98 0 -127 -35l-366 -452l235 -582q16 -43 125 -43l-8 -43h-448l8 43q96 0 123 25l-174 428l-340 -420q14 -33 120 -33 l-8 -43h-336z" />
<glyph unicode="Y" horiz-adv-x="1148" d="M82 1155l8 43h449l-9 -43q-96 0 -122 -25l225 -555l418 543q-14 37 -121 37l8 43h336l-8 -43q-88 0 -121 -27l-471 -612l-72 -432q12 -41 123 -41l-8 -43h-447l9 43q113 0 135 41l61 367l-268 663q-23 41 -125 41z" />
<glyph unicode="Z" horiz-adv-x="1030" d="M-47 0l842 1137h-498q-45 -18 -64 -129h-43l33 190h826l-842 -1137h557q68 27 117 136h43l-86 -197h-885z" />
<glyph unicode="[" horiz-adv-x="593" d="M14 -319l265 1579h401l-12 -74h-238l-240 -1432h238l-12 -73h-402z" />
<glyph unicode="\" horiz-adv-x="921" d="M150 1217l65 36l584 -1273l-66 -37z" />
<glyph unicode="]" horiz-adv-x="593" d="M-100 -319l12 73h238l239 1432h-237l12 74h401l-264 -1579h-401z" />
<glyph unicode="^" horiz-adv-x="933" d="M221 705l402 401h55l272 -401l-80 -58l-235 352l-354 -352z" />
<glyph unicode="_" horiz-adv-x="942" d="M-23 -193l17 91h745l-16 -91h-746z" />
<glyph unicode="`" horiz-adv-x="614" d="M350 1356h217l97 -332h-54z" />
<glyph unicode="a" horiz-adv-x="987" d="M12 170q0 53 21.5 97t62.5 74t87 52.5t109.5 40t117 29.5t122 26.5t111.5 26.5q14 100 14 150q0 88 -45 135t-118 47q-182 0 -226 -98q60 -1 60 -62q0 -45 -31 -69.5t-74 -24.5q-33 0 -53 21.5t-20 56.5q0 119 105 184.5t271 65.5q164 0 242 -73t78 -194q0 -25 -8 -77 l-60 -361q-4 -33 -4 -45q0 -59 27.5 -92t77.5 -33l-9 -47q-203 0 -260 76q-143 -96 -327 -96q-270 0 -271 190zM203 166q0 -117 127 -117q141 0 260 70q-4 20 -4 34.5t4 43.5l45 274q-27 -8 -91.5 -24.5t-100 -27.5t-88 -35t-81 -50.5t-50 -69.5t-21.5 -98z" />
<glyph unicode="b" horiz-adv-x="1095" d="M61 102l177 1043q-127 10 -129 10l8 47q39 0 159.5 44t167.5 44l-86 -520q143 160 308 160q57 0 114.5 -17.5t111.5 -56.5t88 -112.5t34 -174.5q0 -274 -161 -431.5t-392 -157.5q-129 0 -228.5 30.5t-134.5 61.5zM242 78q96 -29 219 -29q135 0 247.5 151.5t112.5 379.5 q0 129 -50 204.5t-138 75.5h-2q-155 0 -291 -194z" />
<glyph unicode="c" horiz-adv-x="978" d="M63 358q0 244 147.5 404t393.5 160q305 0 305 -181q0 -61 -29.5 -100t-78.5 -39q-80 1 -80 60q0 47 28.5 71.5t57.5 24.5q-8 102 -193 102q-143 0 -246.5 -126t-103.5 -320q0 -147 73 -252t179 -105q180 0 309 136l45 -25q-76 -96 -178 -142t-260 -46q-150 0 -259.5 88 t-109.5 290z" />
<glyph unicode="d" horiz-adv-x="1103" d="M61 340q0 274 161 432t392 158q117 0 193 -49l45 264q-127 10 -129 10l8 47q39 0 160 44t168 44l-178 -1073q-4 -33 -4 -45q0 -59 27.5 -92t76.5 -33l-8 -47q-213 0 -264 78q-119 -98 -299 -98q-57 0 -114.5 17t-112 56t-88.5 113t-34 174zM262 385q0 -121 50 -228.5 t130 -107.5q150 0 250 76q-4 20 -4 35q0 12 4 37l105 618q-70 45 -183 45q-121 0 -236.5 -134t-115.5 -341z" />
<glyph unicode="e" d="M66 358q0 244 135 404t370 160q190 0 280.5 -85.5t90.5 -189.5q0 -63 -52 -103t-226 -65l-396 -53q0 -154 71 -261.5t179 -107.5q180 0 309 136l45 -25q-76 -96 -178 -142t-260 -46q-150 0 -259 88t-109 290zM272 489l306 41q180 23 180 146q0 70 -48 127t-157 57 q-84 0 -169 -104.5t-112 -266.5z" />
<glyph unicode="f" horiz-adv-x="512" d="M68 -72l153 912h-102l10 61h102l11 70q55 319 307 319q113 0 169 -32.5t56 -77.5q0 -39 -29.5 -62.5t-68.5 -23.5q-35 0 -49.5 21.5t-12.5 46t-10 46t-45 21.5q-39 0 -73.5 -58.5t-53.5 -171.5l-16 -98h94l-10 -61h-94l-142 -840l-104 -72h-92z" />
<glyph unicode="g" horiz-adv-x="1058" d="M20 -238q0 49 33 82t74 33q82 0 82 -59q0 -74 -68 -99q47 -55 228 -55q100 0 172.5 86t120.5 291q-104 -61 -252 -61q-59 0 -115.5 17t-111 54t-88.5 111t-34 172q0 274 160 431t391 157q78 0 144.5 -14.5t104.5 -34t64.5 -39t37.5 -33.5l10 -15l-121 -727 q-35 -211 -158 -340t-317 -129q-166 0 -261.5 54.5t-95.5 117.5zM254 324q0 -127 50 -201t138 -74q136 1 234 60l119 710q-88 33 -181 33q-133 0 -246.5 -151.5t-113.5 -376.5z" />
<glyph unicode="h" horiz-adv-x="1091" d="M53 0l193 1145q-127 10 -129 10l8 47q39 0 160 44t168 44l-88 -532q123 164 270 164q170 0 245.5 -47.5t75.5 -157.5q0 -20 -8 -78l-69 -422q-4 -33 -5 -45q0 -59 28 -92t77 -33l-8 -47q-143 0 -214 37t-71 119q0 12 4 41l76 456q6 31 6 58q0 141 -160 141 q-139 0 -272 -242l-102 -610h-185z" />
<glyph unicode="i" horiz-adv-x="497" d="M88 0l129 776q-18 2 -47 4t-47.5 4t-32.5 2l8 48q39 0 160 44t168 44l-154 -922h-184zM256 1151q0 55 37 97t90 42q41 0 68.5 -28.5t27.5 -71.5q0 -55 -38 -96t-91 -41q-41 0 -67.5 27.5t-26.5 70.5z" />
<glyph unicode="j" horiz-adv-x="493" d="M-280.5 -179q30.5 32 73.5 32q29 0 48.5 -17.5t19.5 -48.5q0 -37 -31 -63v-13q0 -57 90 -57q41 0 83 60.5t60 168.5l152 895l-129 10l8 48q39 0 160 44t168 44l-168 -1012q-29 -168 -118 -244t-206 -76q-241 0 -241 143q0 54 30.5 86zM252 1153q0 55 38 97t91 42 q41 0 67.5 -27.5t26.5 -72.5q0 -55 -38 -96t-91 -41q-41 0 -67.5 27.5t-26.5 70.5z" />
<glyph unicode="k" horiz-adv-x="991" d="M53 0l193 1145q-127 10 -129 10l8 47q39 0 160 44t168 44l-215 -1290h-185zM340 520l416 326q-27 12 -99 12l9 43h321l-8 -43q-80 0 -115 -27l-334 -260l271 -489q23 -39 123 -39l-9 -43h-206q-84 0 -136 98z" />
<glyph unicode="l" horiz-adv-x="491" d="M82 156q0 12 4 41l160 948q-127 10 -129 10l8 47q39 0 160 44t168 44l-179 -1073q-4 -33 -4 -45q0 -59 28 -92t77 -33l-8 -47q-143 0 -214 37t-71 119z" />
<glyph unicode="m" horiz-adv-x="1662" d="M86 0l129 776q-18 2 -47 4t-47.5 4t-32.5 2l8 48q39 0 160 44t168 44l-23 -136q109 135 250 136q283 0 307 -156q113 156 265 156q309 0 309 -189q0 -12 -4 -45l-78 -471q-4 -33 -4 -45q0 -59 27.5 -92t76.5 -33l-8 -47q-143 0 -214 37t-71 119q0 12 5 41l69 415 q10 66 10 99q0 76 -33.5 108.5t-107.5 32.5q-127 0 -246 -184l-112 -668h-185l103 612q10 66 10 99q0 76 -34 108.5t-107 32.5q-129 0 -246 -182l-113 -670h-184z" />
<glyph unicode="n" horiz-adv-x="1124" d="M86 0l129 776q-18 2 -47 4t-47.5 4t-32.5 2l8 48q39 0 160 44t168 44l-25 -150q123 152 326 152q262 0 262 -217q0 -35 -6 -76l-70 -414q-4 -33 -4 -45q0 -59 28 -92t77 -33l-8 -47q-143 0 -214 37t-71 119q0 12 4 41l76 448q4 20 4 60q0 147 -158 147q-145 0 -264 -195 l-111 -657h-184z" />
<glyph unicode="o" horiz-adv-x="1120" d="M66 360q0 246 145 404t412 158q207 0 310 -96.5t103 -268.5q0 -250 -145.5 -413.5t-411.5 -163.5q-201 0 -307 102t-106 278zM264 360q0 -162 66.5 -240.5t185.5 -78.5q143 0 232.5 154.5t89.5 363.5q0 299 -260 299q-139 0 -226.5 -151.5t-87.5 -346.5z" />
<glyph unicode="p" horiz-adv-x="1101" d="M-109 -393l7 43q115 0 137 41l180 1085q-18 2 -47 4t-47.5 4t-32.5 2l8 48q39 0 160 44t168 44l-25 -156q129 156 308 156q125 0 219 -82t94 -265q0 -281 -157.5 -438t-395.5 -157q-117 0 -193 45l-55 -334q12 -41 121 -41l-6 -43h-443zM285 90q70 -41 182 -41 q133 0 244.5 144.5t111.5 365.5q0 293 -147 293q-168 0 -297 -201z" />
<glyph unicode="q" horiz-adv-x="1062" d="M61 334q0 274 160 431t391 157q74 0 138.5 -21.5t102.5 -53.5t65.5 -63.5t37.5 -54.5l11 -20l-170 -1018q12 -41 121 -41l-7 -43h-442l6 43q115 0 137 41l60 356q-107 -67 -258 -67h-4q-59 0 -115.5 17t-111 54t-88.5 111t-34 172zM254 324q0 -127 50 -201t138 -74 q142 1 240 64l115 682q-86 57 -183 57q-133 0 -246.5 -151.5t-113.5 -376.5z" />
<glyph unicode="r" horiz-adv-x="788" d="M86 0l129 776q-18 2 -47 4t-47.5 4t-32.5 2l8 48q39 0 160 44t168 44l-33 -201q141 201 236 201q86 0 142 -32t57 -73q0 -39 -29 -60.5t-66 -21.5q-29 0 -45 18.5t-22.5 40t-23.5 40t-46 18.5q-66 0 -227 -274l-97 -578h-184z" />
<glyph unicode="s" horiz-adv-x="835" d="M25 0l22 260h45q0 -82 87 -140.5t179 -58.5q37 0 76 8.5t79 44.5t40 95q0 49 -44 88t-108.5 66.5t-128 58.5t-107.5 84t-44 125q0 137 97 214t243 77q70 0 138.5 -31t78.5 -31q27 0 33 41h47l-25 -260h-45q0 84 -69.5 147.5t-161.5 63.5q-70 0 -132.5 -38t-62.5 -89 t47 -92t115 -72t135.5 -63.5t114.5 -86t47 -120.5q0 -143 -117 -227t-276 -84q-74 0 -144.5 30.5t-79.5 30.5q-25 0 -30 -41h-49z" />
<glyph unicode="t" horiz-adv-x="681" d="M84 840l10 61q119 0 208 89t108 208h73l-49 -297h176l-10 -61h-176l-111 -652q-4 -33 -4 -47q0 -84 90 -84q37 0 81 36t69 100l45 -25q-76 -188 -279 -188q-200 0 -200 165q0 29 6 60l106 635h-143z" />
<glyph unicode="u" horiz-adv-x="1128" d="M92 858l8 43h314l-109 -645q-6 -31 -6 -59q0 -147 160 -148q139 0 254 129l121 723h184l-115 -684q-4 -33 -4 -45q0 -59 27.5 -92t77.5 -33l-9 -47q-252 0 -280 121q-141 -141 -281 -141q-166 0 -241.5 53t-75.5 164q0 33 6 73l92 547q-12 41 -123 41z" />
<glyph unicode="v" horiz-adv-x="937" d="M23 858l8 43h291l153 -651q10 14 64.5 85t74 98.5t63.5 93t66.5 106.5t48 98t39.5 109q-25 18 -106 18l8 43h213q-20 -127 -101 -271.5t-166 -250t-160 -213t-85 -166.5h-100l-189 817q-12 41 -122 41z" />
<glyph unicode="w" horiz-adv-x="1454" d="M23 858l8 43h291l153 -651l287 504h110l119 -504q10 14 64.5 85t74 98.5t63.5 93t66.5 106.5t48 98t40.5 109q-25 18 -107 18l8 43h213q-20 -127 -101 -271.5t-166 -250t-159.5 -213t-85.5 -166.5h-100l-119 520l-297 -520h-100l-189 817q-12 41 -122 41z" />
<glyph unicode="x" horiz-adv-x="958" d="M-70 0l9 43q109 0 145 43l299 356l-174 387q-12 29 -115 29l8 43h174q80 0 105 -18.5t63 -104.5l78 -172l248 295h195l-9 -43q-111 0 -143 -39l-250 -299l203 -448q12 -29 117 -29l-9 -43h-204q-57 0 -81 22.5t-59 100.5l-106 233l-299 -356h-195z" />
<glyph unicode="y" horiz-adv-x="911" d="M-8 -313q0 33 24.5 61.5t55.5 28.5q16 0 36.5 -17.5t34.5 -17.5q43 0 64 37l125 221l-189 817q-12 41 -123 41l9 43h290l154 -651l332 586q-26 22 -104 22h-7l8 43h242l-631 -1110q-98 -168 -243 -168q-29 0 -53.5 18.5t-24.5 45.5z" />
<glyph unicode="z" horiz-adv-x="876" d="M-47 0l684 840h-393q-45 -18 -64 -129h-43l33 190h709l-684 -840h442q45 18 63 129h43l-32 -190h-758z" />
<glyph unicode="{" horiz-adv-x="544" d="M35 428l8 47q80 0 121 26.5t53 96.5q6 35 25.5 206t27.5 224q33 188 330 189l-6 -48q-80 0 -123 -26.5t-55 -95.5q-6 -35 -24.5 -206t-26.5 -225q-18 -121 -150 -163q98 -37 98 -129q0 -23 -2 -35q-8 -53 -49 -226.5t-47 -205.5q-2 -12 -2 -31q0 -51 35 -70.5t104 -19.5 l-8 -49q-270 0 -270 153q0 10 4 35q8 53 46 226t44 206q4 25 4 33q0 49 -34 68.5t-103 19.5z" />
<glyph unicode="|" horiz-adv-x="391" d="M61 -61l234 1392h74l-234 -1392h-74z" />
<glyph unicode="}" horiz-adv-x="544" d="M-78 -313l8 47q80 0 123 26.5t56 96.5q6 35 23.5 205.5t25.5 224.5q18 119 151 164q-98 37 -98 129q0 23 2 34q8 53 49 226.5t47 206.5q2 12 2 30q0 90 -141 90l8 50q272 0 273 -154q-1 -10 -5 -35q-8 -53 -46 -226t-44 -206q-4 -25 -4 -33q0 -49 34 -68.5t103 -19.5 l-8 -47q-80 0 -121 -26.5t-53 -96.5q-6 -35 -25.5 -206t-27.5 -224q-33 -188 -332 -188z" />
<glyph unicode="~" horiz-adv-x="1124" d="M111 426q45 270 254 270q59 0 239 -70.5t217 -70.5q78 0 113 35t47 106h53q-45 -270 -256 -270q-59 0 -239.5 70.5t-216.5 70.5q-78 0 -112 -34.5t-46 -106.5h-53z" />
<glyph unicode="&#xa1;" horiz-adv-x="479" d="M27 -152q0 12 2 19q12 74 83.5 354.5t84.5 323.5q42 139 69 139q25 0 25 -92q0 -66 -21.5 -344.5t-40.5 -380.5q-14 -92 -114 -92q-39 0 -63.5 19.5t-24.5 53.5zM184 936q0 55 45 102t103 47q41 0 71.5 -30.5t30.5 -75.5q0 -57 -43 -102.5t-100 -45.5q-43 0 -75 31 t-32 74z" />
<glyph unicode="&#xa2;" horiz-adv-x="970" d="M49 356q0 246 147.5 406t393.5 160h28l89 252l71 -15l-84 -244q201 -29 201 -174q0 -61 -29.5 -100t-79.5 -39q-79 1 -79 60q0 47 28.5 71.5t57.5 24.5q-8 82 -119 98l-264 -774q43 -25 92 -25q180 0 309 136l45 -25q-76 -96 -178.5 -142t-259.5 -46q-31 0 -45 2 l-82 -244l-74 14l82 242q-250 66 -250 362zM252 414q0 -176 96 -283l250 729q-141 -2 -243.5 -128t-102.5 -318z" />
<glyph unicode="&#xa3;" horiz-adv-x="1093" d="M0 133q0 76 65.5 137.5t137.5 61.5q63 0 119 -31q10 66 16 191.5t18 214.5h-139l14 90h140q45 221 135 321.5t229 100.5q125 0 202 -40t77 -114q0 -47 -32 -77t-73 -30q-29 0 -48 17.5t-19 48.5q0 37 30 63v7q0 31 -42 47t-85 16q-129 0 -190 -360h217l-14 -90h-215 q-4 -37 -15.5 -160t-27 -201t-43.5 -141q86 -57 186 -58q90 0 158.5 18.5t97.5 41t49.5 41t24.5 18.5q18 0 16 -24q-2 -10 -16.5 -36t-45 -65t-70.5 -73.5t-102.5 -59t-129.5 -24.5q-131 0 -236 108q-96 -113 -213 -112q-88 0 -132 43t-44 110zM72 145q0 -43 30.5 -69.5 t77.5 -26.5q74 0 117 148q-56 65 -107 65q-45 0 -81.5 -33.5t-36.5 -83.5z" />
<glyph unicode="&#xa4;" horiz-adv-x="1048" d="M55 193l129 108q-47 80 -47 172q0 166 129 303l-94 113l76 65l94 -114q119 82 250 82q129 0 223 -80l129 112l55 -65l-129 -111q50 -74 50 -176q0 -168 -129 -303l92 -106l-78 -66l-88 109q-121 -84 -254 -84q-137 0 -227 84l-127 -109zM231 487q0 -104 70 -173.5 t178 -69.5q133 0 239.5 100t106.5 242q0 104 -69.5 173.5t-177.5 69.5q-133 0 -240 -100.5t-107 -241.5z" />
<glyph unicode="&#xa5;" horiz-adv-x="1114" d="M150 1155l8 43h397l-8 -43q-55 0 -86 -8l143 -600l332 586q-27 23 -113 22l8 43h336l-8 -43q-113 0 -133 -39l-377 -665h162l-16 -91h-174l-19 -114h174l-14 -90h-174l-13 -72q12 -41 123 -41l-8 -43h-446l8 43q113 0 135 41l12 72h-178l15 90h178l18 114h-178l16 91h156 l-154 663q-12 41 -122 41z" />
<glyph unicode="&#xa6;" horiz-adv-x="401" d="M66 -61l98 589h74l-99 -589h-73zM201 741l98 590h74l-99 -590h-73z" />
<glyph unicode="&#xa7;" horiz-adv-x="841" d="M20 -195q0 37 25 65t59 28q25 0 43.5 -19.5t18.5 -44.5q0 -6 -2 -21.5t-2 -23.5q0 -53 24.5 -93t71.5 -40q170 0 170 133q0 41 -56.5 120t-124 155.5t-123.5 172t-56 164.5q0 137 76.5 226.5t179.5 122.5q-106 125 -107 223q0 100 106.5 174t254.5 74q88 0 151.5 -67 t63.5 -124q0 -37 -25 -64.5t-59 -27.5q-27 0 -45.5 19.5t-18.5 43.5q0 6 2 21.5t2 24.5q0 53 -24.5 93t-71.5 40q-170 0 -170 -133q0 -41 56.5 -120t124 -156t123.5 -172t56 -165q0 -137 -76.5 -226t-179.5 -122q106 -125 107 -223q0 -100 -105.5 -174t-252.5 -74 q-88 0 -152 66.5t-64 123.5zM209 512q0 -29 6 -56.5t22.5 -58t27.5 -51t40 -54.5t42 -49.5t48 -53t45 -48.5q162 49 162 183q0 29 -6 56.5t-22.5 58t-26.5 50t-41 55.5t-40 48t-48 54t-45 48q-164 -49 -164 -182z" />
<glyph unicode="&#xa8;" horiz-adv-x="823" d="M309 1108q0 47 37 82t82 35q37 0 61.5 -24.5t24.5 -59.5q0 -47 -37 -82t-82 -35q-37 0 -61.5 24.5t-24.5 59.5zM686 1108q0 47 37 82t82 35q37 0 61.5 -24.5t24.5 -59.5q0 -47 -37 -82t-82 -35q-37 0 -61.5 24.5t-24.5 59.5z" />
<glyph unicode="&#xa9;" horiz-adv-x="1323" d="M94 455q0 180 98.5 333.5t252 239.5t317.5 86q207 0 343 -135t136 -336q0 -51 -8 -94q-39 -233 -232.5 -399t-427.5 -166q-207 0 -343 135t-136 336zM150 465q0 -182 121.5 -304t310.5 -122q211 0 386 149.5t210 360.5q6 43 6 84q0 182 -121 304t-309 122 q-229 0 -416.5 -175t-187.5 -419zM367 492q0 170 120.5 278.5t260.5 108.5q27 0 51 -7.5t38.5 -15.5t16.5 -8q4 0 6 20h45l-14 -151h-41q-2 51 -27 78.5t-86 27.5q-100 0 -170.5 -95t-70.5 -232q0 -98 46 -150.5t111 -52.5q53 0 105.5 37t75.5 78l40 -21q-84 -150 -251 -149 q-125 0 -190.5 72.5t-65.5 181.5z" />
<glyph unicode="&#xaa;" horiz-adv-x="745" d="M94 264l8 53h492l-8 -53h-492zM143 545q0 41 20.5 70.5t61.5 47t74 27.5t87 21.5t73 15.5q6 39 6 66q0 82 -74 81q-69 1 -94 -30q33 -10 25 -51q-6 -45 -66 -45q-43 0 -43 49q0 66 57.5 100.5t141.5 34.5q168 0 168 -141q0 -12 -5 -41l-32 -203q-8 -53 16.5 -53t28.5 24 h39q-8 -43 -34 -59.5t-83 -16.5q-51 0 -70 37q-72 -39 -153 -39q-143 0 -144 105zM258 545q0 -49 53 -49q61 0 119 28q0 23 4 51l19 107q-10 -2 -41 -11t-42.5 -12.5t-35 -11.5t-32.5 -16t-22.5 -21.5t-17.5 -29t-4 -35.5z" />
<glyph unicode="&#xab;" horiz-adv-x="899" d="M96 612q8 38 35 52l365 192l-9 -53l-211 -191l146 -190l-8 -53l-299 192q-25 16 -19 51zM424 612q8 38 35 52l364 192l-8 -53l-211 -191l146 -190l-9 -53l-299 192q-25 16 -18 51z" />
<glyph unicode="&#xac;" horiz-adv-x="878" d="M150 606l14 90h598l-45 -270h-86l31 180h-512z" />
<glyph unicode="&#xad;" horiz-adv-x="817" d="M141 606l29 90h541l-29 -90h-541z" />
<glyph unicode="&#xae;" horiz-adv-x="1325" d="M94 455q0 180 98.5 333.5t252 239.5t317.5 86q207 0 343 -135t136 -336q0 -180 -98.5 -333.5t-252 -239.5t-317.5 -86q-207 0 -343 135t-136 336zM150 465q0 -182 121.5 -304t310.5 -122q229 0 415.5 174t186.5 420q0 182 -121 304t-309 122q-231 0 -417.5 -175 t-186.5 -419zM346 250l8 41q51 0 66 14l86 510q-2 12 -62 12l7 41h241q121 0 181.5 -41t60.5 -100q0 -66 -45 -115t-115 -71l92 -234q2 -16 66 -16l-8 -41h-54q-74 0 -96 10t-39 49l-84 213h-80l-36 -217q2 -14 61 -14l-8 -41h-242zM580 578h75q84 0 120 37.5t36 119.5 q0 80 -127 80h-63z" />
<glyph unicode="&#xaf;" horiz-adv-x="786" d="M299 1053l14 90h541l-14 -90h-541z" />
<glyph unicode="&#xb0;" horiz-adv-x="641" d="M166 1020q0 111 85 190.5t189 79.5q86 0 142.5 -56t56.5 -140q0 -111 -86 -190t-191 -79q-86 0 -141 56.5t-55 138.5zM250 1032q0 -53 36 -88t91 -35q68 0 122 50.5t54 121.5q0 53 -35 89t-90 36q-68 0 -123 -51t-55 -123z" />
<glyph unicode="&#xb1;" horiz-adv-x="864" d="M98 274l17 91h585l-16 -91h-586zM172 713l16 90h248l35 207h90l-35 -207h248l-16 -90h-248l-35 -207h-90l35 207h-248z" />
<glyph unicode="&#xb2;" horiz-adv-x="741" d="M84 573l2 11q4 25 81 87t167 130.5t164.5 165t74.5 182.5q0 100 -110 100q-72 0 -121 -20.5t-68.5 -45t-36 -45t-28.5 -20.5q-23 0 -16 23q8 53 92 132t211 79q236 0 235 -168q0 -68 -60.5 -151t-133 -143.5t-150.5 -121.5t-94 -80h274q55 20 92 88h46l-91 -203h-530z " />
<glyph unicode="&#xb3;" horiz-adv-x="729" d="M102 686q0 86 72 86q23 0 34 -22.5t16 -50t37 -50t91 -22.5q106 0 152.5 58t46.5 142q0 123 -100 123q-16 0 -37 -4t-33 -4q-14 0 -24.5 8t-8.5 19q2 18 21 18q4 2 14 4q43 12 66.5 20.5t55.5 27t47 48t15 68.5q0 43 -32.5 68.5t-90.5 25.5q-59 0 -99 -17.5t-54.5 -36.5 t-28.5 -36.5t-26 -17.5q-10 0 -14.5 9t-2.5 15q8 47 80 117t178 70q232 0 232 -156q0 -123 -129 -190q109 -45 108 -154q0 -127 -85 -207t-253 -80q-74 0 -134 23.5t-87 50.5t-27 47z" />
<glyph unicode="&#xb4;" horiz-adv-x="614" d="M295 1024l207 332h217l-371 -332h-53z" />
<glyph unicode="&#xb5;" horiz-adv-x="1191" d="M27 -307q0 8 4 33l196 1175h185l-109 -645q-6 -31 -6 -59q0 -147 160 -148q129 0 268 148l119 704h184l-123 -731q-4 -33 -4 -45q0 -84 55 -84q27 0 52.5 15.5t27.5 35.5h37q-10 -57 -57 -84.5t-152 -27.5q-133 0 -141 145q-145 -145 -307 -145q-174 0 -246 69l-20 -117 q-2 -16 -3 -45q0 -63 49.5 -104t49.5 -80q0 -53 -36 -83t-83 -30q-39 0 -69.5 25t-30.5 78z" />
<glyph unicode="&#xb6;" horiz-adv-x="1091" d="M113 813q0 158 128 271.5t377 113.5h492l-8 -43q-113 0 -135 -41l-172 -1030q12 -41 123 -41l-9 -43h-317l188 1128h-104l-189 -1128h-317l8 43q113 0 135 41l78 465q-135 14 -206.5 83.5t-71.5 180.5z" />
<glyph unicode="&#xb7;" horiz-adv-x="468" d="M123 598q0 57 43 102t100 45q43 0 75 -30.5t32 -73.5q0 -55 -45 -102t-103 -47q-41 0 -71.5 30.5t-30.5 75.5z" />
<glyph unicode="&#xb8;" horiz-adv-x="622" d="M57 -393l6 35q38 -4 50 -4q86 0 126 32.5t40 81.5q0 72 -111 72l90 201h78l-60 -138q59 0 121 -29.5t62 -88.5q0 -74 -60.5 -125.5t-191.5 -51.5q-70 0 -150 15z" />
<glyph unicode="&#xb9;" horiz-adv-x="499" d="M100 573l9 48q72 0 88 20l75 444q-12 -8 -73 -63l-33 18q12 16 48 65.5t61.5 82.5t57.5 72.5t55.5 60t35.5 20.5h37l-119 -700q8 -20 86 -20l-8 -48h-320z" />
<glyph unicode="&#xba;" horiz-adv-x="759" d="M90 264l8 53h498l-8 -53h-498zM156 641q0 127 77.5 209t212.5 82q215 0 216 -191q0 -131 -76 -216t-213 -85q-106 0 -161.5 55.5t-55.5 145.5zM276 639q0 -147 117 -147q68 0 108 73.5t40 173.5q0 140 -119 140q-63 0 -104.5 -74t-41.5 -166z" />
<glyph unicode="&#xbb;" horiz-adv-x="899" d="M104 369l9 53l211 190l-146 191l8 53l299 -192q25 -16 19 -52q-8 -37 -35 -51zM432 369l8 53l211 190l-145 191l8 53l299 -192q25 -16 18 -52q-7 -37 -34 -51z" />
<glyph unicode="&#xbc;" horiz-adv-x="1425" d="M92 573l8 48q72 0 88 20l76 444q-12 -8 -74 -63l-32 18q12 16 48 65.5t61.5 82.5t57 72.5t55 60t36.5 20.5h37l-119 -700q8 -20 86 -20l-8 -48h-320zM143 -20l1010 1273l53 -36l-1009 -1274zM731 215l481 553h86l-84 -494h113l-10 -59h-113l-24 -147q8 -20 84 -21l-9 -47 h-315l8 47q74 0 88 21l25 147h-330zM856 274h215l51 308z" />
<glyph unicode="&#xbd;" horiz-adv-x="1478" d="M92 573l8 48q72 0 88 20l76 444q-12 -8 -74 -63l-32 18q12 16 48 65.5t61.5 82.5t57 72.5t55 60t36.5 20.5h37l-119 -700q8 -20 86 -20l-8 -48h-320zM94 -20l1010 1273l53 -36l-1010 -1274zM748 0l2 10q4 25 80.5 87.5t166.5 131t165 164.5t75 182q0 100 -111 101 q-72 0 -121 -20.5t-68 -45t-35.5 -45t-29.5 -20.5q-23 0 -16 22q8 53 92 132t211 79q236 0 236 -168q0 -68 -60.5 -150.5t-133.5 -143t-150.5 -122t-94.5 -79.5h275q55 20 92 88h45l-90 -203h-530z" />
<glyph unicode="&#xbe;" horiz-adv-x="1499" d="M88 686q0 86 72 86q23 0 34 -22.5t16 -50t37 -50t91 -22.5q106 0 152.5 58t46.5 142q0 123 -101 123q-16 0 -36.5 -4t-32.5 -4q-14 0 -24.5 8t-8.5 19q2 18 20 18q4 2 15 4q43 12 66.5 20.5t55 27t47 48t15.5 68.5q0 43 -33 68.5t-90 25.5q-59 0 -99 -17.5t-54.5 -36.5 t-29 -36.5t-26.5 -17.5q-10 0 -14 9t-2 15q8 47 79.5 117t178.5 70q231 0 231 -156q0 -123 -129 -190q109 -45 109 -154q0 -127 -85 -207t-253 -80q-74 0 -134.5 23.5t-87 50.5t-26.5 47zM238 -20l1009 1273l53 -36l-1009 -1274zM805 215l481 553h86l-84 -494h113l-10 -59 h-113l-25 -147q8 -20 84 -21l-8 -47h-315l8 47q74 0 88 21l25 147h-330zM930 274h215l51 308z" />
<glyph unicode="&#xbf;" horiz-adv-x="808" d="M-6 35q0 98 65.5 193.5t145.5 158t152.5 137t82.5 131.5q2 10 12.5 19.5t18.5 9.5t16.5 -9t6.5 -20q-12 -70 -49 -135t-82.5 -117.5t-88.5 -109.5t-71.5 -134t-28.5 -167q0 -82 39 -119t123 -37t144.5 51.5t60.5 110.5q0 16 -8.5 37t-8.5 35q0 37 24.5 60.5t57.5 23.5 q29 0 49.5 -19.5t20.5 -58.5q0 -115 -104.5 -208t-266.5 -93q-166 0 -238.5 75.5t-72.5 184.5zM387 936q0 55 45 102t103 47q41 0 71.5 -30.5t30.5 -75.5q0 -57 -43 -102.5t-100 -45.5q-43 0 -75 31t-32 74z" />
<glyph unicode="&#xc0;" horiz-adv-x="1112" d="M-98 0l8 43q115 0 135 43l584 1112h98l211 -1112q8 -43 125 -43l-8 -43h-449l8 43q94 0 123 25l-63 313h-393l-156 -301q14 -37 121 -37l-8 -43h-336zM317 449h345l-95 477zM436 1602h217l96 -332h-53z" />
<glyph unicode="&#xc1;" horiz-adv-x="1112" d="M-98 0l8 43q115 0 135 43l584 1112h98l211 -1112q8 -43 125 -43l-8 -43h-449l8 43q94 0 123 25l-63 313h-393l-156 -301q14 -37 121 -37l-8 -43h-336zM317 449h345l-95 477zM669 1270l207 332h217l-371 -332h-53z" />
<glyph unicode="&#xc2;" horiz-adv-x="1112" d="M-98 0l8 43q115 0 135 43l584 1112h98l211 -1112q8 -43 125 -43l-8 -43h-449l8 43q94 0 123 25l-63 313h-393l-156 -301q14 -37 121 -37l-8 -43h-336zM317 449h345l-95 477zM452 1270l248 332h102l138 -332h-54l-161 178l-220 -178h-53z" />
<glyph unicode="&#xc3;" horiz-adv-x="1112" d="M-98 0l8 43q115 0 135 43l584 1112h98l211 -1112q8 -43 125 -43l-8 -43h-449l8 43q94 0 123 25l-63 313h-393l-156 -301q14 -37 121 -37l-8 -43h-336zM317 449h345l-95 477zM391 1270q37 229 192 229q45 0 159 -60t142 -60q57 0 84 29.5t37 90.5h39q-37 -229 -195 -229 q-45 0 -156.5 60.5t-140.5 60.5q-57 0 -84.5 -30t-37.5 -91h-39z" />
<glyph unicode="&#xc4;" horiz-adv-x="1112" d="M-98 0l8 43q115 0 135 43l584 1112h98l211 -1112q8 -43 125 -43l-8 -43h-449l8 43q94 0 123 25l-63 313h-393l-156 -301q14 -37 121 -37l-8 -43h-336zM317 449h345l-95 477zM421 1354q0 47 37 82t82 35q37 0 61.5 -24.5t24.5 -59.5q0 -47 -37 -82t-82 -35 q-37 0 -61.5 24.5t-24.5 59.5zM798 1354q0 47 37 82t82 35q37 0 61.5 -24.5t24.5 -59.5q0 -47 -37 -82t-82 -35q-37 0 -61.5 24.5t-24.5 59.5z" />
<glyph unicode="&#xc5;" horiz-adv-x="1112" d="M-98 0l8 43q115 0 135 43l584 1112h98l211 -1112q8 -43 125 -43l-8 -43h-449l8 43q94 0 123 25l-63 313h-393l-156 -301q14 -37 121 -37l-8 -43h-336zM317 449h345l-95 477zM565 1385q0 76 54 127t126 51q57 0 92 -36t35 -89q0 -76 -53.5 -127t-124.5 -51q-57 0 -93 36 t-36 89zM622 1395q0 -35 22.5 -57.5t57.5 -22.5q43 0 79 33t36 80q0 35 -23.5 57.5t-58.5 22.5q-43 0 -78 -33t-35 -80z" />
<glyph unicode="&#xc6;" horiz-adv-x="1556" d="M-123 0l8 43q106 0 135 43v-2l762 1049q-20 23 -112 22l8 43h868l-33 -199h-43q6 43 7 70q0 47 -27 59h-424l-78 -471h287q43 16 61 129h43l-55 -327h-43q8 57 8 69q0 47 -26 60h-287l-86 -518h467q53 20 113 129h40l-81 -199h-869l8 43q113 0 136 41l49 297h-396 l-219 -301q12 -37 123 -37l-8 -43h-156l31 66l-47 -66h-164zM367 449h358l106 636z" />
<glyph unicode="&#xc7;" horiz-adv-x="1157" d="M94 467q0 168 67.5 313.5t174 238.5t236.5 145.5t259 52.5q61 0 133 -31t85 -31q25 0 30 41h47l-22 -260h-45q0 92 -57.5 151.5t-180.5 59.5q-207 0 -358.5 -196.5t-151.5 -479.5q0 -203 95.5 -313.5t238.5 -110.5q102 0 214 70.5t155 150.5l45 -24q-150 -254 -445 -264 l-41 -93q59 0 121 -29.5t62 -88.5q0 -74 -60.5 -125.5t-191.5 -51.5q-70 0 -150 15l6 35q38 -4 50 -4v-3q86 0 125.5 33t39.5 82q0 72 -110 72l72 158q-213 16 -328 152t-115 335z" />
<glyph unicode="&#xc8;" horiz-adv-x="1040" d="M4 0l8 43q113 0 135 41l172 1030q-12 41 -122 41l8 43h825l-33 -199h-43q6 43 7 70q0 47 -27 59h-424l-78 -471h287q43 16 61 129h43l-55 -327h-43q8 57 8 69q0 47 -26 60h-287l-86 -518h467q53 20 112 129h41l-82 -199h-868zM420 1602h217l96 -332h-53z" />
<glyph unicode="&#xc9;" horiz-adv-x="1040" d="M4 0l8 43q113 0 135 41l172 1030q-12 41 -122 41l8 43h825l-33 -199h-43q6 43 7 70q0 47 -27 59h-424l-78 -471h287q43 16 61 129h43l-55 -327h-43q8 57 8 69q0 47 -26 60h-287l-86 -518h467q53 20 112 129h41l-82 -199h-868zM653 1270l207 332h217l-371 -332h-53z" />
<glyph unicode="&#xca;" horiz-adv-x="1040" d="M4 0l8 43q113 0 135 41l172 1030q-12 41 -122 41l8 43h825l-33 -199h-43q6 43 7 70q0 47 -27 59h-424l-78 -471h287q43 16 61 129h43l-55 -327h-43q8 57 8 69q0 47 -26 60h-287l-86 -518h467q53 20 112 129h41l-82 -199h-868zM436 1270l248 332h102l138 -332h-54 l-161 178l-220 -178h-53z" />
<glyph unicode="&#xcb;" horiz-adv-x="1040" d="M4 0l8 43q113 0 135 41l172 1030q-12 41 -122 41l8 43h825l-33 -199h-43q6 43 7 70q0 47 -27 59h-424l-78 -471h287q43 16 61 129h43l-55 -327h-43q8 57 8 69q0 47 -26 60h-287l-86 -518h467q53 20 112 129h41l-82 -199h-868zM405 1354q0 47 37 82t82 35q37 0 61.5 -24.5 t24.5 -59.5q0 -47 -37 -82t-82 -35q-37 0 -61.5 24.5t-24.5 59.5zM782 1354q0 47 37 82t82 35q37 0 61.5 -24.5t24.5 -59.5q0 -47 -37 -82t-82 -35q-37 0 -61.5 24.5t-24.5 59.5z" />
<glyph unicode="&#xcc;" horiz-adv-x="630" d="M4 0l8 43q113 0 135 41l172 1030q-12 41 -122 41l8 43h446l-8 -43q-113 0 -135 -41l-172 -1030q12 -41 123 -41l-8 -43h-447zM176 1602h217l96 -332h-53z" />
<glyph unicode="&#xcd;" horiz-adv-x="630" d="M4 0l8 43q113 0 135 41l172 1030q-12 41 -122 41l8 43h446l-8 -43q-113 0 -135 -41l-172 -1030q12 -41 123 -41l-8 -43h-447zM409 1270l207 332h217l-371 -332h-53z" />
<glyph unicode="&#xce;" horiz-adv-x="630" d="M4 0l8 43q113 0 135 41l172 1030q-12 41 -122 41l8 43h446l-8 -43q-113 0 -135 -41l-172 -1030q12 -41 123 -41l-8 -43h-447zM192 1270l248 332h102l138 -332h-54l-161 178l-220 -178h-53z" />
<glyph unicode="&#xcf;" horiz-adv-x="630" d="M4 0l8 43q113 0 135 41l172 1030q-12 41 -122 41l8 43h446l-8 -43q-113 0 -135 -41l-172 -1030q12 -41 123 -41l-8 -43h-447zM161 1354q0 47 37 82t82 35q37 0 61.5 -24.5t24.5 -59.5q0 -47 -37 -82t-82 -35q-37 0 -61.5 24.5t-24.5 59.5zM538 1354q0 47 37 82t82 35 q37 0 61.5 -24.5t24.5 -59.5q0 -47 -37 -82t-82 -35q-37 0 -61.5 24.5t-24.5 59.5z" />
<glyph unicode="&#xd0;" horiz-adv-x="1251" d="M-6 -2l6 43q115 0 137 41l39 233q47 281 228.5 440.5t539.5 180.5q-39 100 -116.5 150.5t-172.5 50.5h-153l-29 -174h-82l29 174h-201q-45 -18 -63 -129h-43l32 190h285l25 143h82l-25 -143h154q240 0 377 -131t137 -348q0 -315 -204 -518t-487 -203h-495zM324 68h178 q74 0 154.5 45t153.5 127t120 215t47 288q0 63 -14 131q-266 -16 -409.5 -148t-176.5 -333z" />
<glyph unicode="&#xd1;" horiz-adv-x="1316" d="M4 0l8 43q113 0 135 41l172 1030q-12 41 -122 41l8 43h274l537 -838l127 754q-12 41 -123 41l8 43h328l-8 -43q-113 0 -136 -41l-186 -1114h-18l-635 1018l-156 -934q12 -41 123 -41l-8 -43h-328zM477 1270q37 229 192 229q45 0 159 -60t142 -60q57 0 84 29.5t37 90.5h39 q-37 -229 -195 -229q-45 0 -156.5 60.5t-140.5 60.5q-57 0 -84.5 -30t-37.5 -91h-39z" />
<glyph unicode="&#xd2;" horiz-adv-x="1318" d="M94 479q0 303 204 521.5t478 218.5q217 0 345 -142.5t128 -359.5q0 -301 -204.5 -519t-477.5 -218q-219 0 -346 141t-127 358zM299 469q0 -178 71.5 -299t217.5 -121q137 0 244.5 106.5t158.5 258t51 309.5q0 115 -27.5 207t-94 155.5t-164.5 63.5q-137 0 -245 -107.5 t-160 -260t-52 -312.5zM525 1602h217l96 -332h-53z" />
<glyph unicode="&#xd3;" horiz-adv-x="1318" d="M94 479q0 303 204 521.5t478 218.5q217 0 345 -142.5t128 -359.5q0 -301 -204.5 -519t-477.5 -218q-219 0 -346 141t-127 358zM299 469q0 -178 71.5 -299t217.5 -121q137 0 244.5 106.5t158.5 258t51 309.5q0 115 -27.5 207t-94 155.5t-164.5 63.5q-137 0 -245 -107.5 t-160 -260t-52 -312.5zM758 1270l207 332h217l-371 -332h-53z" />
<glyph unicode="&#xd4;" horiz-adv-x="1318" d="M94 479q0 303 204 521.5t478 218.5q217 0 345 -142.5t128 -359.5q0 -301 -204.5 -519t-477.5 -218q-219 0 -346 141t-127 358zM299 469q0 -178 71.5 -299t217.5 -121q137 0 244.5 106.5t158.5 258t51 309.5q0 115 -27.5 207t-94 155.5t-164.5 63.5q-137 0 -245 -107.5 t-160 -260t-52 -312.5zM541 1270l248 332h102l138 -332h-54l-161 178l-220 -178h-53z" />
<glyph unicode="&#xd5;" horiz-adv-x="1318" d="M94 479q0 303 204 521.5t478 218.5q217 0 345 -142.5t128 -359.5q0 -301 -204.5 -519t-477.5 -218q-219 0 -346 141t-127 358zM299 469q0 -178 71.5 -299t217.5 -121q137 0 244.5 106.5t158.5 258t51 309.5q0 115 -27.5 207t-94 155.5t-164.5 63.5q-137 0 -245 -107.5 t-160 -260t-52 -312.5zM480 1270q37 229 192 229q45 0 159 -60t142 -60q57 0 84 29.5t37 90.5h39q-37 -229 -195 -229q-45 0 -156.5 60.5t-140.5 60.5q-57 0 -84.5 -30t-37.5 -91h-39z" />
<glyph unicode="&#xd6;" horiz-adv-x="1318" d="M94 479q0 303 204 521.5t478 218.5q217 0 345 -142.5t128 -359.5q0 -301 -204.5 -519t-477.5 -218q-219 0 -346 141t-127 358zM299 469q0 -178 71.5 -299t217.5 -121q137 0 244.5 106.5t158.5 258t51 309.5q0 115 -27.5 207t-94 155.5t-164.5 63.5q-137 0 -245 -107.5 t-160 -260t-52 -312.5zM510 1354q0 47 37 82t82 35q37 0 61.5 -24.5t24.5 -59.5q0 -47 -37 -82t-82 -35q-37 0 -61.5 24.5t-24.5 59.5zM887 1354q0 47 37 82t82 35q37 0 61.5 -24.5t24.5 -59.5q0 -47 -37 -82t-82 -35q-37 0 -61.5 24.5t-24.5 59.5z" />
<glyph unicode="&#xd7;" horiz-adv-x="860" d="M80 389l305 262l-217 262l74 64l217 -262l307 262l53 -64l-307 -262l219 -262l-74 -63l-219 262l-305 -262z" />
<glyph unicode="&#xd8;" horiz-adv-x="1318" d="M94 479q0 303 204 521.5t478 218.5q131 0 232 -54l55 88l59 -36l-55 -91q182 -139 182 -409q0 -301 -204.5 -519t-477.5 -218q-111 0 -196 36l-45 -73l-60 37l43 67q-104 63 -159.5 177t-55.5 255zM299 469q0 -197 80 -311l565 905q-74 86 -188 86q-137 0 -245 -107.5 t-160 -260t-52 -312.5zM426 104q66 -55 162 -55q137 0 244.5 106.5t158.5 258t51 309.5q0 165 -55 276z" />
<glyph unicode="&#xd9;" horiz-adv-x="1267" d="M154 1155l8 43h446l-8 -43q-113 0 -135 -41l-107 -635q-10 -72 -10 -119q0 -150 70.5 -230.5t191.5 -80.5q137 0 250 115t144 303l108 647q-12 41 -123 41l8 43h328l-8 -43q-113 0 -135 -41l-101 -606q-45 -266 -184 -397t-319 -131q-416 0 -416 380q0 53 14 148l100 606 q-12 41 -122 41zM551 1602h217l96 -332h-53z" />
<glyph unicode="&#xda;" horiz-adv-x="1267" d="M154 1155l8 43h446l-8 -43q-113 0 -135 -41l-107 -635q-10 -72 -10 -119q0 -150 70.5 -230.5t191.5 -80.5q137 0 250 115t144 303l108 647q-12 41 -123 41l8 43h328l-8 -43q-113 0 -135 -41l-101 -606q-45 -266 -184 -397t-319 -131q-416 0 -416 380q0 53 14 148l100 606 q-12 41 -122 41zM784 1270l207 332h217l-371 -332h-53z" />
<glyph unicode="&#xdb;" horiz-adv-x="1267" d="M154 1155l8 43h446l-8 -43q-113 0 -135 -41l-107 -635q-10 -72 -10 -119q0 -150 70.5 -230.5t191.5 -80.5q137 0 250 115t144 303l108 647q-12 41 -123 41l8 43h328l-8 -43q-113 0 -135 -41l-101 -606q-45 -266 -184 -397t-319 -131q-416 0 -416 380q0 53 14 148l100 606 q-12 41 -122 41zM567 1270l248 332h102l138 -332h-54l-161 178l-220 -178h-53z" />
<glyph unicode="&#xdc;" horiz-adv-x="1267" d="M154 1155l8 43h446l-8 -43q-113 0 -135 -41l-107 -635q-10 -72 -10 -119q0 -150 70.5 -230.5t191.5 -80.5q137 0 250 115t144 303l108 647q-12 41 -123 41l8 43h328l-8 -43q-113 0 -135 -41l-101 -606q-45 -266 -184 -397t-319 -131q-416 0 -416 380q0 53 14 148l100 606 q-12 41 -122 41zM536 1354q0 47 37 82t82 35q37 0 61.5 -24.5t24.5 -59.5q0 -47 -37 -82t-82 -35q-37 0 -61.5 24.5t-24.5 59.5zM913 1354q0 47 37 82t82 35q37 0 61.5 -24.5t24.5 -59.5q0 -47 -37 -82t-82 -35q-37 0 -61.5 24.5t-24.5 59.5z" />
<glyph unicode="&#xdd;" horiz-adv-x="1148" d="M82 1155l8 43h449l-9 -43q-96 0 -122 -25l225 -555l418 543q-14 37 -121 37l8 43h336l-8 -43q-88 0 -121 -27l-471 -612l-72 -432q12 -41 123 -41l-8 -43h-447l9 43q113 0 135 41l61 367l-268 663q-23 41 -125 41zM727 1270l207 332h217l-371 -332h-53z" />
<glyph unicode="&#xde;" horiz-adv-x="1077" d="M4 0l8 43q113 0 135 41l172 1030q-12 41 -122 41l8 43h446l-8 -43q-113 0 -135 -41l-29 -172h107q238 0 352.5 -74.5t114.5 -193.5q0 -176 -147.5 -280.5t-403.5 -104.5h-131l-35 -205q12 -41 123 -41l-8 -43h-447zM381 358h131q338 0 338 336q0 88 -62.5 133t-214.5 45 h-106z" />
<glyph unicode="&#xdf;" horiz-adv-x="1026" d="M-123 -287l6 47q57 0 100.5 46.5t57.5 123.5l174 1041q29 166 130 242.5t222 76.5q164 0 234.5 -51t70.5 -149q0 -119 -70.5 -212.5t-183.5 -142.5q135 -25 229.5 -117t94.5 -196q0 -190 -123 -316t-280 -126q-115 0 -166 54t-51 105q0 119 92 119q25 0 32 -34t5 -74.5 t18 -74.5t68 -34q72 0 150.5 107.5t78.5 246.5q0 119 -82 214.5t-199 95.5q-16 0 -24 6t-6 14q4 18 39 29q68 25 139.5 120t71.5 185q0 66 -27 118t-92 52q-55 0 -108.5 -60.5t-71.5 -169.5l-183 -1089q-18 -104 -102 -150.5t-244 -46.5z" />
<glyph unicode="&#xe0;" horiz-adv-x="987" d="M12 170q0 53 21.5 97t62.5 74t87 52.5t109.5 40t117 29.5t122 26.5t111.5 26.5q14 100 14 150q0 88 -45 135t-118 47q-182 0 -226 -98q60 -1 60 -62q0 -45 -31 -69.5t-74 -24.5q-33 0 -53 21.5t-20 56.5q0 119 105 184.5t271 65.5q164 0 242 -73t78 -194q0 -25 -8 -77 l-60 -361q-4 -33 -4 -45q0 -59 27.5 -92t77.5 -33l-9 -47q-203 0 -260 76q-143 -96 -327 -96q-270 0 -271 190zM203 166q0 -117 127 -117q141 0 260 70q-4 20 -4 34.5t4 43.5l45 274q-27 -8 -91.5 -24.5t-100 -27.5t-88 -35t-81 -50.5t-50 -69.5t-21.5 -98zM285 1387h217 l96 -332h-53z" />
<glyph unicode="&#xe1;" horiz-adv-x="987" d="M12 170q0 53 21.5 97t62.5 74t87 52.5t109.5 40t117 29.5t122 26.5t111.5 26.5q14 100 14 150q0 88 -45 135t-118 47q-182 0 -226 -98q60 -1 60 -62q0 -45 -31 -69.5t-74 -24.5q-33 0 -53 21.5t-20 56.5q0 119 105 184.5t271 65.5q164 0 242 -73t78 -194q0 -25 -8 -77 l-60 -361q-4 -33 -4 -45q0 -59 27.5 -92t77.5 -33l-9 -47q-203 0 -260 76q-143 -96 -327 -96q-270 0 -271 190zM203 166q0 -117 127 -117q141 0 260 70q-4 20 -4 34.5t4 43.5l45 274q-27 -8 -91.5 -24.5t-100 -27.5t-88 -35t-81 -50.5t-50 -69.5t-21.5 -98zM518 1055 l207 332h217l-371 -332h-53z" />
<glyph unicode="&#xe2;" horiz-adv-x="987" d="M12 170q0 53 21.5 97t62.5 74t87 52.5t109.5 40t117 29.5t122 26.5t111.5 26.5q14 100 14 150q0 88 -45 135t-118 47q-182 0 -226 -98q60 -1 60 -62q0 -45 -31 -69.5t-74 -24.5q-33 0 -53 21.5t-20 56.5q0 119 105 184.5t271 65.5q164 0 242 -73t78 -194q0 -25 -8 -77 l-60 -361q-4 -33 -4 -45q0 -59 27.5 -92t77.5 -33l-9 -47q-203 0 -260 76q-143 -96 -327 -96q-270 0 -271 190zM203 166q0 -117 127 -117q141 0 260 70q-4 20 -4 34.5t4 43.5l45 274q-27 -8 -91.5 -24.5t-100 -27.5t-88 -35t-81 -50.5t-50 -69.5t-21.5 -98zM301 1055 l248 332h102l138 -332h-54l-161 178l-220 -178h-53z" />
<glyph unicode="&#xe3;" horiz-adv-x="987" d="M12 170q0 53 21.5 97t62.5 74t87 52.5t109.5 40t117 29.5t122 26.5t111.5 26.5q14 100 14 150q0 88 -45 135t-118 47q-182 0 -226 -98q60 -1 60 -62q0 -45 -31 -69.5t-74 -24.5q-33 0 -53 21.5t-20 56.5q0 119 105 184.5t271 65.5q164 0 242 -73t78 -194q0 -25 -8 -77 l-60 -361q-4 -33 -4 -45q0 -59 27.5 -92t77.5 -33l-9 -47q-203 0 -260 76q-143 -96 -327 -96q-270 0 -271 190zM203 166q0 -117 127 -117q141 0 260 70q-4 20 -4 34.5t4 43.5l45 274q-27 -8 -91.5 -24.5t-100 -27.5t-88 -35t-81 -50.5t-50 -69.5t-21.5 -98zM240 1055 q37 229 192 229q45 0 159 -60t142 -60q57 0 84 29.5t37 90.5h39q-37 -229 -195 -229q-45 0 -156.5 60.5t-140.5 60.5q-57 0 -84.5 -30t-37.5 -91h-39z" />
<glyph unicode="&#xe4;" horiz-adv-x="987" d="M12 170q0 53 21.5 97t62.5 74t87 52.5t109.5 40t117 29.5t122 26.5t111.5 26.5q14 100 14 150q0 88 -45 135t-118 47q-182 0 -226 -98q60 -1 60 -62q0 -45 -31 -69.5t-74 -24.5q-33 0 -53 21.5t-20 56.5q0 119 105 184.5t271 65.5q164 0 242 -73t78 -194q0 -25 -8 -77 l-60 -361q-4 -33 -4 -45q0 -59 27.5 -92t77.5 -33l-9 -47q-203 0 -260 76q-143 -96 -327 -96q-270 0 -271 190zM203 166q0 -117 127 -117q141 0 260 70q-4 20 -4 34.5t4 43.5l45 274q-27 -8 -91.5 -24.5t-100 -27.5t-88 -35t-81 -50.5t-50 -69.5t-21.5 -98zM270 1139 q0 47 37 82t82 35q37 0 61.5 -24.5t24.5 -59.5q0 -47 -37 -82t-82 -35q-37 0 -61.5 24.5t-24.5 59.5zM647 1139q0 47 37 82t82 35q37 0 61.5 -24.5t24.5 -59.5q0 -47 -37 -82t-82 -35q-37 0 -61.5 24.5t-24.5 59.5z" />
<glyph unicode="&#xe5;" horiz-adv-x="987" d="M12 170q0 53 21.5 97t62.5 74t87 52.5t109.5 40t117 29.5t122 26.5t111.5 26.5q14 100 14 150q0 88 -45 135t-118 47q-182 0 -226 -98q60 -1 60 -62q0 -45 -31 -69.5t-74 -24.5q-33 0 -53 21.5t-20 56.5q0 119 105 184.5t271 65.5q164 0 242 -73t78 -194q0 -25 -8 -77 l-60 -361q-4 -33 -4 -45q0 -59 27.5 -92t77.5 -33l-9 -47q-203 0 -260 76q-143 -96 -327 -96q-270 0 -271 190zM203 166q0 -117 127 -117q141 0 260 70q-4 20 -4 34.5t4 43.5l45 274q-27 -8 -91.5 -24.5t-100 -27.5t-88 -35t-81 -50.5t-50 -69.5t-21.5 -98zM414 1170 q0 76 54 127t126 51q57 0 92 -36t35 -89q0 -76 -53.5 -127t-124.5 -51q-57 0 -93 36t-36 89zM471 1180q0 -35 22.5 -57.5t57.5 -22.5q43 0 79 33t36 80q0 35 -23.5 57.5t-58.5 22.5q-43 0 -78 -33t-35 -80z" />
<glyph unicode="&#xe6;" horiz-adv-x="1562" d="M12 170q0 74 39 128t116 87t144.5 52.5t174 41t155.5 35.5q16 72 16 152q0 94 -37.5 138t-125.5 44q-182 0 -226 -98q60 -1 60 -64q0 -45 -32 -68.5t-75 -23.5q-33 0 -52 21.5t-19 56.5q0 121 105 185.5t271 64.5q205 0 279 -115q131 115 325 115q190 0 280.5 -85 t90.5 -190q0 -63 -52 -103t-226 -65l-396 -53q0 -154 71 -261.5t179 -107.5q180 0 309 136l46 -25q-76 -96 -178.5 -142t-260.5 -46q-201 0 -299 133q-127 -133 -411 -133q-270 0 -271 190zM201 168q0 -119 129 -119q223 0 340 101q-45 84 -45 208q0 64 8 113 q-70 -12 -115 -22.5t-111.5 -34t-106.5 -53t-69.5 -80t-29.5 -113.5zM831 489l306 41q88 14 134 47t46 99q0 70 -48 127t-157 57q-84 0 -169 -104.5t-112 -266.5z" />
<glyph unicode="&#xe7;" horiz-adv-x="980" d="M66 360q0 244 147 404t393 160q305 0 305 -181q0 -61 -29.5 -100t-78.5 -39q-80 0 -80 60q0 47 28.5 71.5t57.5 24.5q-8 102 -193 102q-143 0 -246.5 -126t-103.5 -320q0 -147 73 -252t179 -105q180 0 309 136l45 -25q-135 -174 -387 -188l-41 -95q59 0 121 -29.5 t62 -88.5q0 -74 -60.5 -125.5t-191.5 -51.5q-70 0 -150 15l6 35q38 -4 50 -4v4q86 0 125.5 32.5t39.5 81.5q0 72 -110 72l70 156q-141 8 -240.5 96t-99.5 280z" />
<glyph unicode="&#xe8;" d="M66 358q0 244 135 404t370 160q190 0 280.5 -85.5t90.5 -189.5q0 -63 -52 -103t-226 -65l-396 -53q0 -154 71 -261.5t179 -107.5q180 0 309 136l45 -25q-76 -96 -178 -142t-260 -46q-150 0 -259 88t-109 290zM272 489l306 41q180 23 180 146q0 70 -48 127t-157 57 q-84 0 -169 -104.5t-112 -266.5zM334 1387h217l96 -332h-53z" />
<glyph unicode="&#xe9;" d="M66 358q0 244 135 404t370 160q190 0 280.5 -85.5t90.5 -189.5q0 -63 -52 -103t-226 -65l-396 -53q0 -154 71 -261.5t179 -107.5q180 0 309 136l45 -25q-76 -96 -178 -142t-260 -46q-150 0 -259 88t-109 290zM272 489l306 41q180 23 180 146q0 70 -48 127t-157 57 q-84 0 -169 -104.5t-112 -266.5zM567 1055l207 332h217l-371 -332h-53z" />
<glyph unicode="&#xea;" d="M66 358q0 244 135 404t370 160q190 0 280.5 -85.5t90.5 -189.5q0 -63 -52 -103t-226 -65l-396 -53q0 -154 71 -261.5t179 -107.5q180 0 309 136l45 -25q-76 -96 -178 -142t-260 -46q-150 0 -259 88t-109 290zM272 489l306 41q180 23 180 146q0 70 -48 127t-157 57 q-84 0 -169 -104.5t-112 -266.5zM350 1055l248 332h102l138 -332h-54l-161 178l-220 -178h-53z" />
<glyph unicode="&#xeb;" d="M66 358q0 244 135 404t370 160q190 0 280.5 -85.5t90.5 -189.5q0 -63 -52 -103t-226 -65l-396 -53q0 -154 71 -261.5t179 -107.5q180 0 309 136l45 -25q-76 -96 -178 -142t-260 -46q-150 0 -259 88t-109 290zM272 489l306 41q180 23 180 146q0 70 -48 127t-157 57 q-84 0 -169 -104.5t-112 -266.5zM317 1139q0 47 37 82t82 35q37 0 61.5 -24.5t24.5 -59.5q0 -47 -37 -82t-82 -35q-37 0 -61.5 24.5t-24.5 59.5zM694 1139q0 47 37 82t82 35q37 0 61.5 -24.5t24.5 -59.5q0 -47 -37 -82t-82 -35q-37 0 -61.5 24.5t-24.5 59.5z" />
<glyph unicode="&#xec;" horiz-adv-x="495" d="M86 0l129 776q-18 2 -47 4t-47.5 4t-32.5 2l8 48q39 0 160 44t168 44l-154 -922h-184zM94 1387h217l96 -332h-53z" />
<glyph unicode="&#xed;" horiz-adv-x="495" d="M86 0l129 776q-18 2 -47 4t-47.5 4t-32.5 2l8 48q39 0 160 44t168 44l-154 -922h-184zM327 1055l207 332h217l-371 -332h-53z" />
<glyph unicode="&#xee;" horiz-adv-x="495" d="M86 0l129 776q-18 2 -47 4t-47.5 4t-32.5 2l8 48q39 0 160 44t168 44l-154 -922h-184zM110 1055l248 332h102l138 -332h-54l-161 178l-220 -178h-53z" />
<glyph unicode="&#xef;" horiz-adv-x="495" d="M79 1139q0 47 37 82t82 35q37 0 61.5 -24.5t24.5 -59.5q0 -47 -37 -82t-82 -35q-37 0 -61.5 24.5t-24.5 59.5zM86 0l129 776q-18 2 -47 4t-47.5 4t-32.5 2l8 48q39 0 160 44t168 44l-154 -922h-184zM456 1139q0 47 37 82t82 35q37 0 61.5 -24.5t24.5 -59.5q0 -47 -37 -82 t-82 -35q-37 0 -61.5 24.5t-24.5 59.5z" />
<glyph unicode="&#xf0;" horiz-adv-x="1087" d="M66 350q0 252 136 412t402 160q76 0 133 -13q-43 94 -114 181l-189 -99l-24 60l168 88q-35 35 -71 63.5t-54 38.5l-19 12l29 37q90 -35 196 -108l197 104l25 -59l-164 -88q283 -229 282 -564q0 -262 -134 -428.5t-404 -166.5q-197 0 -296 99t-99 271zM264 344 q0 -154 61.5 -228.5t172.5 -74.5q94 0 165.5 81t104.5 200.5t33 255.5q0 145 -59.5 212.5t-182.5 67.5q-137 0 -216 -157.5t-79 -356.5z" />
<glyph unicode="&#xf1;" horiz-adv-x="1124" d="M86 0l129 776q-18 2 -47 4t-47.5 4t-32.5 2l8 48q39 0 160 44t168 44l-25 -150q123 152 326 152q262 0 262 -217q0 -35 -6 -76l-70 -414q-4 -33 -4 -45q0 -59 28 -92t77 -33l-8 -47q-143 0 -214 37t-71 119q0 12 4 41l76 448q4 20 4 60q0 147 -158 147q-145 0 -264 -195 l-111 -657h-184zM351 1055q37 229 192 229q45 0 159 -60t142 -60q57 0 84 29.5t37 90.5h39q-37 -229 -195 -229q-45 0 -156.5 60.5t-140.5 60.5q-57 0 -84.5 -30t-37.5 -91h-39z" />
<glyph unicode="&#xf2;" horiz-adv-x="1120" d="M66 360q0 246 145 404t412 158q207 0 310 -96.5t103 -268.5q0 -250 -145.5 -413.5t-411.5 -163.5q-201 0 -307 102t-106 278zM264 360q0 -162 66.5 -240.5t185.5 -78.5q143 0 232.5 154.5t89.5 363.5q0 299 -260 299q-139 0 -226.5 -151.5t-87.5 -346.5zM393 1387h217 l96 -332h-53z" />
<glyph unicode="&#xf3;" horiz-adv-x="1120" d="M66 360q0 246 145 404t412 158q207 0 310 -96.5t103 -268.5q0 -250 -145.5 -413.5t-411.5 -163.5q-201 0 -307 102t-106 278zM264 360q0 -162 66.5 -240.5t185.5 -78.5q143 0 232.5 154.5t89.5 363.5q0 299 -260 299q-139 0 -226.5 -151.5t-87.5 -346.5zM626 1055 l207 332h217l-371 -332h-53z" />
<glyph unicode="&#xf4;" horiz-adv-x="1120" d="M66 360q0 246 145 404t412 158q207 0 310 -96.5t103 -268.5q0 -250 -145.5 -413.5t-411.5 -163.5q-201 0 -307 102t-106 278zM264 360q0 -162 66.5 -240.5t185.5 -78.5q143 0 232.5 154.5t89.5 363.5q0 299 -260 299q-139 0 -226.5 -151.5t-87.5 -346.5zM409 1055 l248 332h102l138 -332h-54l-161 178l-220 -178h-53z" />
<glyph unicode="&#xf5;" horiz-adv-x="1120" d="M66 360q0 246 145 404t412 158q207 0 310 -96.5t103 -268.5q0 -250 -145.5 -413.5t-411.5 -163.5q-201 0 -307 102t-106 278zM264 360q0 -162 66.5 -240.5t185.5 -78.5q143 0 232.5 154.5t89.5 363.5q0 299 -260 299q-139 0 -226.5 -151.5t-87.5 -346.5zM348 1055 q37 229 192 229q45 0 159 -60t142 -60q57 0 84 29.5t37 90.5h39q-37 -229 -195 -229q-45 0 -156.5 60.5t-140.5 60.5q-57 0 -84.5 -30t-37.5 -91h-39z" />
<glyph unicode="&#xf6;" horiz-adv-x="1120" d="M66 360q0 246 145 404t412 158q207 0 310 -96.5t103 -268.5q0 -250 -145.5 -413.5t-411.5 -163.5q-201 0 -307 102t-106 278zM264 360q0 -162 66.5 -240.5t185.5 -78.5q143 0 232.5 154.5t89.5 363.5q0 299 -260 299q-139 0 -226.5 -151.5t-87.5 -346.5zM378 1139 q0 47 37 82t82 35q37 0 61.5 -24.5t24.5 -59.5q0 -47 -37 -82t-82 -35q-37 0 -61.5 24.5t-24.5 59.5zM755 1139q0 47 37 82t82 35q37 0 61.5 -24.5t24.5 -59.5q0 -47 -37 -82t-82 -35q-37 0 -61.5 24.5t-24.5 59.5z" />
<glyph unicode="&#xf7;" horiz-adv-x="985" d="M102 606l15 90h807l-15 -90h-807zM346 346q0 53 41 96t96 43q41 0 71 -29.5t30 -70.5q0 -51 -43 -96t-97 -45q-39 0 -68.5 30.5t-29.5 71.5zM442 920q0 53 41 96t97 43q41 0 70.5 -30t29.5 -71q0 -51 -43 -96t-96 -45q-39 0 -69 31t-30 72z" />
<glyph unicode="&#xf8;" horiz-adv-x="1120" d="M66 360q0 246 145 404t412 158q115 0 202 -33l60 84l55 -41l-51 -74q147 -90 147 -301q0 -250 -145.5 -413.5t-411.5 -163.5q-102 0 -184 28l-57 -80l-56 41l49 70q-166 96 -165 321zM264 360q0 -129 45 -208l453 645q-61 61 -184 61q-139 0 -226.5 -151.5t-87.5 -346.5z M354 96q61 -55 162 -55q143 0 232.5 154.5t89.5 363.5q0 108 -35 178z" />
<glyph unicode="&#xf9;" horiz-adv-x="1128" d="M92 858l8 43h314l-109 -645q-6 -31 -6 -59q0 -147 160 -148q139 0 254 129l121 723h184l-115 -684q-4 -33 -4 -45q0 -59 27.5 -92t77.5 -33l-9 -47q-252 0 -280 121q-141 -141 -281 -141q-166 0 -241.5 53t-75.5 164q0 33 6 73l92 547q-12 41 -123 41zM385 1387h217 l96 -332h-53z" />
<glyph unicode="&#xfa;" horiz-adv-x="1128" d="M92 858l8 43h314l-109 -645q-6 -31 -6 -59q0 -147 160 -148q139 0 254 129l121 723h184l-115 -684q-4 -33 -4 -45q0 -59 27.5 -92t77.5 -33l-9 -47q-252 0 -280 121q-141 -141 -281 -141q-166 0 -241.5 53t-75.5 164q0 33 6 73l92 547q-12 41 -123 41zM618 1055l207 332 h217l-371 -332h-53z" />
<glyph unicode="&#xfb;" horiz-adv-x="1128" d="M92 858l8 43h314l-109 -645q-6 -31 -6 -59q0 -147 160 -148q139 0 254 129l121 723h184l-115 -684q-4 -33 -4 -45q0 -59 27.5 -92t77.5 -33l-9 -47q-252 0 -280 121q-141 -141 -281 -141q-166 0 -241.5 53t-75.5 164q0 33 6 73l92 547q-12 41 -123 41zM401 1055l248 332 h102l138 -332h-54l-161 178l-220 -178h-53z" />
<glyph unicode="&#xfc;" horiz-adv-x="1128" d="M92 858l8 43h314l-109 -645q-6 -31 -6 -59q0 -147 160 -148q139 0 254 129l121 723h184l-115 -684q-4 -33 -4 -45q0 -59 27.5 -92t77.5 -33l-9 -47q-252 0 -280 121q-141 -141 -281 -141q-166 0 -241.5 53t-75.5 164q0 33 6 73l92 547q-12 41 -123 41zM370 1139 q0 47 37 82t82 35q37 0 61.5 -24.5t24.5 -59.5q0 -47 -37 -82t-82 -35q-37 0 -61.5 24.5t-24.5 59.5zM747 1139q0 47 37 82t82 35q37 0 61.5 -24.5t24.5 -59.5q0 -47 -37 -82t-82 -35q-37 0 -61.5 24.5t-24.5 59.5z" />
<glyph unicode="&#xfd;" horiz-adv-x="911" d="M-8 -313q0 33 24.5 61.5t55.5 28.5q16 0 36.5 -17.5t34.5 -17.5q43 0 64 37l125 221l-189 817q-12 41 -123 41l9 43h290l154 -651l332 586q-27 23 -111 22l8 43h242l-631 -1110q-98 -168 -243 -168q-29 0 -53.5 18.5t-24.5 45.5zM569 1055l207 332h217l-371 -332h-53z " />
<glyph unicode="&#xfe;" horiz-adv-x="1071" d="M-141 -393l6 43q115 0 137 41l242 1454q-123 10 -127 10l8 47q39 0 160 44t168 44l-95 -561q147 193 365 193q147 0 210.5 -77t63.5 -200q0 -332 -215 -501t-549 -169l-47 -284q12 -41 121 -41l-6 -43h-442zM244 35q242 4 398.5 153.5t156.5 448.5q0 100 -29 157.5 t-78 57.5q-115 0 -206 -78.5t-150 -189.5z" />
<glyph unicode="&#xff;" horiz-adv-x="911" d="M-8 -313q0 33 24.5 61.5t55.5 28.5q16 0 36.5 -17.5t34.5 -17.5q43 0 64 37l125 221l-189 817q-12 41 -123 41l9 43h290l154 -651l332 586q-27 23 -111 22l8 43h242l-631 -1110q-98 -168 -243 -168q-29 0 -53.5 18.5t-24.5 45.5zM321 1139q0 47 37 82t82 35 q37 0 61.5 -24.5t24.5 -59.5q0 -47 -37 -82t-82 -35q-37 0 -61.5 24.5t-24.5 59.5zM698 1139q0 47 37 82t82 35q37 0 61.5 -24.5t24.5 -59.5q0 -47 -37 -82t-82 -35q-37 0 -61.5 24.5t-24.5 59.5z" />
<glyph unicode="&#x152;" horiz-adv-x="1677" d="M94 479q0 303 204 521.5t478 218.5q84 0 148 -21h743l-33 -199h-43q6 43 6 70q0 47 -26 59h-424l-78 -471h287q43 16 61 129h43l-55 -327h-43q8 57 8 69q0 47 -27 60h-286l-86 -518h467q53 20 112 129h41l-82 -199h-788q-70 -20 -154 -20q-219 0 -346 141t-127 358z M299 469q0 -178 71.5 -299t217.5 -121q109 0 203 72l157 938q-74 90 -192 90q-137 0 -245 -107.5t-160 -260t-52 -312.5z" />
<glyph unicode="&#x153;" horiz-adv-x="1765" d="M66 360q0 246 145 404t412 158q254 0 354 -146q139 145 356 146q190 0 280.5 -85t90.5 -190q0 -63 -52.5 -103t-226.5 -65l-395 -53q0 -154 70.5 -261.5t179.5 -107.5q180 0 309 136l45 -25q-76 -96 -178 -142t-260 -46q-219 0 -313 153q-148 -153 -404 -153 q-201 0 -307 102t-106 278zM264 360q0 -162 66.5 -240.5t185.5 -78.5q143 0 232.5 154.5t89.5 363.5q0 299 -260 299q-139 0 -226.5 -151.5t-87.5 -346.5zM1034 489l305 41q88 14 134.5 47t46.5 99q0 70 -48.5 127t-156.5 57q-84 0 -169 -104.5t-112 -266.5z" />
<glyph unicode="&#x178;" horiz-adv-x="1148" d="M82 1155l8 43h449l-9 -43q-96 0 -122 -25l225 -555l418 543q-14 37 -121 37l8 43h336l-8 -43q-88 0 -121 -27l-471 -612l-72 -432q12 -41 123 -41l-8 -43h-447l9 43q113 0 135 41l61 367l-268 663q-23 41 -125 41zM477 1354q0 47 37 81.5t82 34.5q37 0 61.5 -24.5 t24.5 -59.5q0 -47 -37 -81.5t-82 -34.5q-37 0 -61.5 24.5t-24.5 59.5zM854 1354q0 47 37 81.5t82 34.5q37 0 61.5 -24.5t24.5 -59.5q0 -47 -37 -81.5t-82 -34.5q-37 0 -61.5 24.5t-24.5 59.5z" />
<glyph unicode="&#x2c6;" horiz-adv-x="733" d="M295 1024l248 332h102l137 -332h-53l-162 178l-219 -178h-53z" />
<glyph unicode="&#x2dc;" horiz-adv-x="862" d="M295 1024q37 229 192 229q45 0 159 -60t142 -60q57 0 84 29.5t37 90.5h39q-36 -229 -194 -229q-45 0 -157 60.5t-140 60.5q-57 0 -85 -30t-38 -91h-39z" />
<glyph unicode="&#x2000;" horiz-adv-x="801" />
<glyph unicode="&#x2001;" horiz-adv-x="1602" />
<glyph unicode="&#x2002;" horiz-adv-x="801" />
<glyph unicode="&#x2003;" horiz-adv-x="1602" />
<glyph unicode="&#x2004;" horiz-adv-x="534" />
<glyph unicode="&#x2005;" horiz-adv-x="400" />
<glyph unicode="&#x2006;" horiz-adv-x="267" />
<glyph unicode="&#x2007;" horiz-adv-x="267" />
<glyph unicode="&#x2008;" horiz-adv-x="200" />
<glyph unicode="&#x2009;" horiz-adv-x="320" />
<glyph unicode="&#x200a;" horiz-adv-x="89" />
<glyph unicode="&#x2010;" horiz-adv-x="802" d="M143 606l15 90h540l-14 -90h-541z" />
<glyph unicode="&#x2011;" horiz-adv-x="802" d="M143 606l15 90h540l-14 -90h-541z" />
<glyph unicode="&#x2012;" horiz-adv-x="802" d="M143 606l15 90h540l-14 -90h-541z" />
<glyph unicode="&#x2013;" horiz-adv-x="1069" d="M143 606l15 90h807l-15 -90h-807z" />
<glyph unicode="&#x2014;" horiz-adv-x="1417" d="M143 606l15 90h1155l-15 -90h-1155z" />
<glyph unicode="&#x2018;" horiz-adv-x="456" d="M174 1077q0 66 35 120t91 87t94 49.5t79 28.5l-8 -57q-53 -6 -114.5 -56.5t-74.5 -113.5q-6 -39 -4 -45.5t17 -6.5q6 0 25.5 13.5t41.5 13.5q90 0 90 -72q0 -59 -38.5 -82.5t-71.5 -23.5q-70 0 -116 39t-46 106z" />
<glyph unicode="&#x2019;" horiz-adv-x="432" d="M170 932l10 57q53 6 114.5 56.5t74.5 113.5q4 25 4 36t-3 13t-14 2q-6 0 -25.5 -13t-41.5 -13q-92 -1 -92 71q0 59 39.5 83t72.5 24q70 0 115 -39t45 -106q0 -66 -35 -120.5t-91 -87t-94 -49t-79 -28.5z" />
<glyph unicode="&#x201a;" horiz-adv-x="471" d="M12 -272l11 57q53 6 114.5 56t73.5 114q6 39 4 45t-16 6q-6 0 -25.5 -13t-42.5 -13q-92 -1 -92 71q0 59 40 83t73 24q70 0 114.5 -39t44.5 -107q0 -66 -34.5 -120t-91 -86.5t-94.5 -49t-79 -28.5z" />
<glyph unicode="&#x201c;" horiz-adv-x="825" d="M174 1077q0 66 35 120t91 87t94 49.5t79 28.5l-8 -57q-53 -6 -114.5 -56.5t-74.5 -113.5q-6 -39 -4 -45.5t17 -6.5q6 0 25.5 13.5t41.5 13.5q90 0 90 -72q0 -59 -38.5 -82.5t-71.5 -23.5q-70 0 -116 39t-46 106zM543 1077q0 66 34.5 120t91 87t94.5 49.5t79 28.5l-8 -57 q-53 -6 -115 -56.5t-74 -113.5q-6 -39 -4 -45.5t16 -6.5q6 0 25.5 13.5t42.5 13.5q90 0 90 -72q0 -59 -39 -82.5t-71 -23.5q-70 0 -116 39t-46 106z" />
<glyph unicode="&#x201d;" horiz-adv-x="800" d="M170 932l10 57q53 6 114.5 56.5t74.5 113.5q4 25 4 36t-3 13t-14 2q-6 0 -25.5 -13t-41.5 -13q-92 -1 -92 71q0 59 39.5 83t72.5 24q70 0 115 -39t45 -106q0 -66 -35 -120.5t-91 -87t-94 -49t-79 -28.5zM539 932l10 57q53 6 114.5 56.5t73.5 113.5q4 25 4 36t-3 13t-13 2 q-6 0 -25.5 -13t-42.5 -13q-92 -1 -92 71q0 59 40 83t73 24q70 0 115 -39t45 -106q0 -66 -35 -120.5t-91.5 -87t-94 -49t-78.5 -28.5z" />
<glyph unicode="&#x201e;" horiz-adv-x="843" d="M14 -264l11 57q53 6 114.5 56.5t73.5 113.5q4 25 4 36t-3 13t-13 2q-6 0 -25.5 -13t-42.5 -13q-92 -1 -92 71q0 59 40 83t73 24q70 0 114.5 -39t44.5 -107q0 -66 -34.5 -120t-91 -86.5t-94.5 -49t-79 -28.5zM383 -264l10 57q53 6 114.5 56.5t74.5 113.5q4 25 4 36t-3 13 t-14 2q-6 0 -25.5 -13t-41.5 -13q-92 -1 -92 71q0 59 39.5 83t72.5 24q70 0 115 -39t45 -107q0 -66 -35 -120t-91 -86.5t-94 -49t-79 -28.5z" />
<glyph unicode="&#x2022;" horiz-adv-x="684" d="M104 582q0 106 86 190t203 84q88 0 152.5 -57.5t64.5 -141.5q0 -104 -88 -190t-205 -86q-86 0 -149.5 58.5t-63.5 142.5z" />
<glyph unicode="&#x2026;" horiz-adv-x="1353" d="M41 86q0 57 43 102t100 45q43 0 75 -30.5t32 -73.5q0 -55 -45 -102t-103 -47q-41 0 -71.5 30.5t-30.5 75.5zM492 86q0 57 43 102t100 45q43 0 74.5 -30.5t31.5 -73.5q0 -55 -45 -102t-102 -47q-41 0 -71.5 30.5t-30.5 75.5zM942 86q0 57 43 102t100 45q43 0 75 -30.5 t32 -73.5q0 -55 -45 -102t-103 -47q-41 0 -71.5 30.5t-30.5 75.5z" />
<glyph unicode="&#x202f;" horiz-adv-x="320" />
<glyph unicode="&#x2039;" horiz-adv-x="571" d="M96 612q8 38 35 52l365 192l-9 -53l-211 -191l146 -190l-8 -53l-299 192q-25 16 -19 51z" />
<glyph unicode="&#x203a;" horiz-adv-x="571" d="M104 369l9 53l211 190l-146 191l8 53l299 -192q25 -16 19 -52q-8 -37 -35 -51z" />
<glyph unicode="&#x205f;" horiz-adv-x="400" />
<glyph unicode="&#x20ac;" horiz-adv-x="1110" d="M49 451l47 90h78l8 41q6 43 27 114h-86l47 90h70q82 199 236.5 316t316.5 117q63 0 117.5 -11.5t87 -28t55 -34t32.5 -27.5l9 -12l-27 -168h-45q0 92 -57.5 151.5t-182.5 59.5q-113 0 -203 -97.5t-141 -265.5h424l-47 -90h-399q-20 -72 -27 -155h395l-47 -90h-354 q0 -6 -1 -19.5t-1 -19.5q0 -178 59.5 -270.5t163.5 -92.5q195 0 324 172l39 -33q-82 -102 -119 -131q-98 -78 -289 -77q-188 0 -288.5 133t-100.5 338h-121z" />
<glyph unicode="&#x2122;" horiz-adv-x="1550" d="M197 1085l18 113h535l-19 -113h-35q10 55 -6 64h-162l-88 -520q6 -16 64 -17l-6 -34h-240l6 34q55 0 68 17l88 520h-162q-18 -8 -27 -64h-34zM668 578l6 34q55 0 67 17l88 518q-6 16 -63 16l6 35h164l137 -473l295 473h166l-6 -35q-55 0 -68 -16l-88 -518q6 -16 64 -17 l-6 -34h-242l6 34q57 0 70 17l73 432l-303 -483h-24l-146 489l-73 -438q6 -16 63 -17l-6 -34h-180z" />
<glyph unicode="&#x25fc;" horiz-adv-x="901" d="M0 0v901h901v-901h-901z" />
</font>
</defs>
</svg>
