<svg xmlns:dc="http://purl.org/dc/elements/1.1/" xmlns:cc="http://creativecommons.org/ns#" xmlns:rdf="http://www.w3.org/1999/02/22-rdf-syntax-ns#" xmlns:svg="http://www.w3.org/2000/svg" xmlns="http://www.w3.org/2000/svg" xmlns:sodipodi="http://sodipodi.sourceforge.net/DTD/sodipodi-0.dtd" xmlns:inkscape="http://www.inkscape.org/namespaces/inkscape" version="1.1" x="0px" y="0px" viewBox="0 0 100 100" enable-background="new 0 0 100 100" xml:space="preserve"><path d="m 44.471177,0.54822576 c -0.919778,-0.038697 -1.832921,0.2255613 -2.611412,0.72539234 L 1.9269205,26.879965 C 0.65970585,27.69301 -0.06529685,29.083777 0.00463105,30.543196 L 2.2896165,76.605604 c 0.08395,1.695958 1.2266,3.173643 2.901569,3.735771 L 61.517896,99.237843 c 0.465026,0.156727 0.938006,0.215645 1.414514,0.217618 1.158932,0.0048 2.281018,-0.448417 3.119187,-1.269437 L 98.54917,66.377573 c 0.7916,-0.774777 1.22829,-1.781809 1.23317,-2.865299 l 0.21762,-45.844791 c 0.009,-1.90178 -1.34314,-3.579537 -3.26427,-4.062196 L 45.377918,0.69330426 c -0.301523,-0.075808 -0.600148,-0.1321794 -0.906741,-0.1450785 z m 0.253888,5.54925084 c 4.69428,1.1802736 9.378322,2.3741741 14.07261,3.5544221 L 29.020322,33.372225 C 22.980467,31.545322 16.967851,29.722265 10.812976,27.895514 L 44.725065,6.0974766 z m 28.036411,7.0725744 c 6.29033,1.581558 12.569906,3.169626 18.860194,4.751319 L 61.517896,43.128751 C 55.340691,41.294832 49.299706,39.485756 43.238011,37.65204 L 72.761476,13.170051 z M 94.41443,23.54316 94.23309,62.678073 65.76144,90.533136 65.253666,47.95261 94.41443,23.54316 z m -88.6429305,9.103673 19.9845575,6.020756 0,14.725463 3.373074,-0.03627 2.538873,1.668403 3.917118,-0.435236 4.787589,2.82903 -0.217618,-14.435306 18.860199,5.65806 0.507775,43.849962 L 7.8751375,75.191089 5.7714995,32.646833 z m 81.4615515,10.445649 -2.575142,7.761697 5.150285,-4.932667 -2.575143,-2.82903 z m 1.378246,5.077746 -2.756491,2.647681 0,10.155492 2.756491,-2.647682 0,-10.155491 z m -7.943046,1.269436 -2.575142,7.761697 5.150285,-4.968937 -2.575143,-2.79276 z m 1.341976,5.077746 -2.720221,2.611412 0,10.155492 2.720221,-2.611412 0,-10.155492 z m 8.704707,3.336804 -13.564835,13.093331 0,2.974108 13.564835,-13.09333 0,-2.974109 z" style="" fill="#000000" stroke="none"></path></svg>